<?xml version="1.0"?>
<!--Icons from directory ""-->
<svg xmlns="http://www.w3.org/2000/svg" width="48" height="223" viewBox="0 0 48 223"><svg xmlns:xlink="http://www.w3.org/1999/xlink" id="beef" xml:space="preserve" height="39" viewBox="0 0 44 39.212" width="44" version="1.1" y="0" x="0px" enable-background="new 0 0 44 39.212"><g fill="#E35028">	<path d="m40.158 13.595c-0.365-0.693-0.732-1.389-1.098-2.089 1.488-1.032 2.652-2.173 3.48-3.356-0.433-0.464-0.864-0.93-1.296-1.394 0.071-0.068 0.142-0.135 0.212-0.202 0.405 0.466 0.811 0.933 1.216 1.399 1.569-2.361 1.788-4.88 0.437-7.056l-0.281-0.451-0.873 0.918c-0.351 0.37-0.687 0.726-1.032 1.072-0.261 0.26-0.522 0.504-0.784 0.74-0.006 0.053-0.018 0.097-0.041 0.119-0.088 0.087-0.211 0.162-0.342 0.211-3.408 2.896-7.048 3.787-11.621 2.893-1.215-0.237-2.563-0.353-4.123-0.353-1.438 0-2.914 0.096-4.341 0.189-1.389 0.09-2.825 0.184-4.216 0.188-0.358 0-0.723 0.011-1.089 0.02 0.013 0.042 0.031 0.082 0.043 0.124 0.044 0.155-0.03 0.438-0.148 0.519-0.115 0.078-0.417 0.038-0.532-0.066-0.2-0.183-0.355-0.365-0.468-0.557-0.076 0-0.152 0.004-0.228 0.004-0.968 0-2.089-0.051-3.072-0.435-0.933-0.364-1.826-0.877-2.698-1.436 0.096-0.111 0.17-0.235 0.212-0.375 0.046-0.148-0.038-0.471-0.137-0.507-0.242-0.086-0.644 0.057-0.985 0.284-0.282-0.192-0.563-0.385-0.84-0.577-0.438-0.304-0.88-0.6-1.322-0.895-0.112 0.118-0.248 0.208-0.402 0.256-0.307 0.095-0.62 0.171-1.09 0.298 0.172-0.476 0.311-0.88 0.453-1.262-0.23-0.165-0.477-0.349-0.767-0.565-0.306-0.228-0.657-0.49-1.081-0.799l-0.622-0.454-0.031 0.77c-0.198 4.89 1.445 8.265 5.163 10.581-0.349 0.453-0.701 0.882-1.042 1.299-0.914 1.115-1.776 2.168-2.342 3.377-1.503 3.21-2.152 4.841-1.61 5.917 0.498 0.988 1.82 1.257 4.221 1.744 0.381 0.077 0.792 0.16 1.23 0.253 1.222 0.257 1.723 0.563 2.107 1.772 1.494 4.707 4.339 8.592 8.457 11.545 1.806 1.296 3.62 1.953 5.392 1.953 1.625 0 3.15-0.564 4.542-1.665-0.257-0.102-0.514-0.212-0.77-0.276-0.171-0.043-0.166-0.771-0.258-1.268 0.752 0.161 1.303 0.28 1.902 0.407 0.051 0.077 0.107 0.167 0.167 0.26 0.274-0.238 0.547-0.48 0.818-0.725-0.122 0.469-0.234 0.902-0.323 1.245 0.49-0.225 1.039-0.475 1.59-0.729-0.138-0.481-0.437-0.819-0.789-0.956 2.003-1.851 3.842-3.873 5.003-6.181 1.035-2.056 1.94-3.844 3.43-4.967 0.033 0.01 0.06 0.019 0.095 0.029-0.022-0.025-0.035-0.037-0.056-0.06 0.937-0.694 2.104-1.127 3.679-1.198 1.229-0.056 1.798-0.595 2.059-1.037 0.412-0.699 0.358-1.653-0.154-2.684-0.969-1.948-2.003-3.911-3.004-5.811zm-36.434-8.139l6.922 3.803c-0.125 0.04-0.243 0.08-0.357 0.118-0.64 0.212-1.106 0.376-1.496 0.305-2.445-0.436-4.077-1.788-5.069-4.226zm2.39 7.127c0.302 0.276 0.578 0.526 0.884 0.806-0.354 0.032-0.808 0.073-1.526 0.139 0.317-0.467 0.474-0.698 0.642-0.945zm-2.953 8.232c0.678-2.413 1.51-4.372 2.934-5.935-0.162 0.337-0.303 0.646-0.08 1.046 0.21 0.379 0.305 0.82 0.48 1.221 0.049 0.113 0.228 0.271 0.299 0.249 0.133-0.041 0.317-0.187 0.332-0.306 0.112-0.924-0.211-1.724-0.715-2.549 0.5-0.497 1.064-0.954 1.72-1.365l-0.43 4.689c0.27-0.183 0.66-0.253 1.188-0.194-0.57 0.348-0.567 1.261-1.291 1.326l-0.248 2.694-4.189-0.876zm4.56 0.139c0.599-0.104 1.03-0.203 1.464-0.223 0.057-0.003 0.256 0.514 0.178 0.6-0.248 0.276-0.596 0.463-0.955 0.719-0.241-0.384-0.406-0.649-0.687-1.096zm20.007 12.871c0.107-0.262 0.183-0.543 0.195-0.792 0.052-0.977 0.052-0.977-0.669-2.022 0.054 0.544 0.146 1.083 0.322 1.596 0.151 0.441-0.007 0.938-0.434 1.073-0.395 0.128-0.784 0.721-0.632 1.067 0.01 0.021 0.023 0.042 0.033 0.063-0.202 0.158-0.399 0.318-0.609 0.475-1.395 1.038-2.583 1.521-3.738 1.521-1.04 0-2.127-0.381-3.468-1.217h-0.406c-0.016-0.082-0.032-0.162-0.047-0.244 0.019-0.004 0.038-0.009 0.057-0.014-0.041-0.026-0.079-0.049-0.121-0.077-1.203-0.813-2.289-1.762-3.252-2.811 0.103 0.035 0.198 0.067 0.293 0.096 0.392 0.118 0.764-0.164 0.636-0.521-0.309-0.854 0.095-1.402 0.79-1.938-0.427-0.293-0.689-0.273-0.828 0.232-0.077 0.286-0.193 0.561-0.314 0.83-0.281 0.624-0.72 0.681-1.18 0.164-0.08-0.092-0.159-0.182-0.228-0.261-0.088 0.035-0.183 0.058-0.265 0.083-1.343-1.755-2.368-3.733-3.048-5.826 0.405 0.182 0.844 0.089 1.275 0.061 0.009-0.086 0.018-0.172 0.028-0.258-0.463-0.03-0.925-0.061-1.387-0.089-0.001 0.011-0.002 0.021-0.003 0.031-1.01-3.261-1.178-6.786-0.349-10.179-0.78-0.028-1.563-0.029-2.342-0.177 0.787 0 1.575 0.033 2.358-0.009 0.009 0 0.018-0.002 0.027-0.002 0.025-0.099 0.041-0.199 0.068-0.297 0.292-1.064 0.769-2.245 1.539-3.248-0.209-1.098-0.419-2.202-0.628-3.297 0.097-0.045 0.193-0.091 0.29-0.136 0.135 0.261 0.256 0.531 0.407 0.782 0.144 0.238 0.318 0.458 0.479 0.685 0.227-0.213 0.502-0.394 0.667-0.647 0.171-0.263 0.236-0.595 0.394-1.025 0.237 0.53 0.417 0.931 0.579 1.295-0.397 0.339-0.427 0.552-0.314 0.718 0.58-0.314 1.241-0.546 2.006-0.653 2.378-0.331 4.765-0.499 7.094-0.499 1.411 0 2.811 0.063 4.164 0.185 1.142 0.104 2.145 0.432 3.028 0.924-0.034 0.165 0.07 0.344 0.333 0.773 0.104-0.195 0.18-0.339 0.229-0.455 1.664 1.153 2.767 3.057 3.199 5.604 0.168 0.986 0.239 1.988 0.303 2.872 0.026 0.365 0.05 0.705 0.077 0.973 0.011 5.853-2.158 10.644-6.608 14.591zm6.124-24.415l7.091-3.355c-0.688 1.948-2.111 3.153-4.33 3.672l-0.395 0.096c-0.438 0.111-0.891 0.226-1.279 0.226-0.365-0.001-0.768-0.085-1.087-0.639zm3.452 12.889c-0.05-0.147-0.099-0.296-0.148-0.443 0.804-0.231 1.606-0.464 2.41-0.696 0.039 0.119 0.078 0.237 0.119 0.355-0.794 0.261-1.588 0.522-2.381 0.784zm-0.34-0.551l-0.854-8.54c1.001 0.591 1.79 1.29 2.442 2.104-0.039-0.662 0.475-0.591 0.986-0.422 0.047 1.605 0.047 1.605 0.5 1.704-0.074 0.195-0.164 0.43-0.26 0.68 0.496 1.024 0.891 2.184 1.254 3.494l-4.068 0.98z"/>	<path d="m19.406 4.425c0.239 0.177 0.443 0.399 0.664 0.602 0.168-0.227 0.336-0.455 0.442-0.596-0.841-1.107-1.609-2.118-2.377-3.129-0.069 0.018-0.138 0.036-0.207 0.053 0.014 0.204-0.054 0.483 0.054 0.598 0.671 0.714 0.589 1.856 1.424 2.472z"/>	<path d="m10.975 34.778c-0.079 0.35-0.201 0.688-0.216 1.029-0.01 0.23 0.13 0.469 0.203 0.702 0.145-0.147 0.29-0.292 0.446-0.452 0.354 0.332 0.754 0.707 1.154 1.082-0.2-1.018-0.584-1.881-1.587-2.361z"/>	<path d="m33.199 5.524c-0.323-0.064-0.643-0.155-0.969-0.185-0.267-0.024-0.518 0.027-0.512-0.379 0.006-0.405-0.244-0.428-0.568-0.32-0.555 0.186-0.789 0.514-0.533 1.168 0.826-0.873 1.668 0.101 2.582-0.284z"/>	<path d="m22.787 9.299c-0.089-0.125-0.319-0.184-0.492-0.201-0.069-0.007-0.187 0.168-0.233 0.281-0.148 0.363-0.273 0.736-0.443 1.207 0.332-0.09 0.551-0.143 0.767-0.21 0.423-0.13 0.658-0.713 0.401-1.077z"/>	<path d="m29.195 11.368c-0.457 0.949-0.384 1.467 0.188 1.991 0.08 0.073 0.293 0.102 0.374 0.047 0.083-0.057 0.136-0.256 0.104-0.366-0.086-0.303-0.221-0.591-0.338-0.885-0.087-0.212-0.176-0.422-0.328-0.787z"/>	<path d="m28.314 37.874c-0.457 0.373-0.378 0.809 0.156 1.048 0.336-0.492 0.67-0.985 1.004-1.479-0.051-0.043-0.103-0.086-0.154-0.13-0.338 0.182-0.713 0.322-1.006 0.561z"/>	<path d="m34.806 31.399c0.163 0.148 0.33 0.422 0.488 0.416 0.205-0.006 0.403-0.232 0.747-0.459-0.3-0.262-0.544-0.557-0.616-0.52-0.239 0.122-0.417 0.366-0.619 0.563z"/>	<path d="m30.24 5.152c-0.539-0.444-1.014-0.834-1.563-1.287-0.029 0.682 0.948 1.489 1.563 1.287z"/>	<path d="m37.614 21.56c0.131-0.564 0.261-1.128 0.41-1.77-0.62 0.273-0.854 1.093-0.41 1.77z"/>	<path d="m23.386 34.294h-1.873c0.384 0.498 1.017 0.49 1.873 0z"/>	<path d="m19.415 26.608c0.106 0.228 0.214 0.451 0.314 0.68 0.094 0.213 0.179 0.433 0.269 0.649 0.199-1.045 0-1.43-0.583-1.329z"/>	<path d="m20.738 35.344c-0.03-0.013-0.193 0.163-0.202 0.259-0.007 0.072 0.127 0.178 0.22 0.23 0.209 0.119 0.432 0.215 0.741 0.366 0-0.161 0.061-0.384-0.011-0.443-0.22-0.176-0.486-0.3-0.748-0.412z"/>	<path d="m8.55 31.523c0.042-0.046 0.084-0.093 0.127-0.14-0.3-0.276-0.6-0.553-1.004-0.924-0.102 0.935 0.384 1.003 0.877 1.064z"/>	<path d="m17.395 10.737c0.061-0.061 0.026-0.347-0.032-0.371-0.146-0.059-0.35-0.079-0.491-0.02-0.181 0.078-0.323 0.248-0.475 0.373 0.178 0.074 0.356 0.196 0.541 0.208 0.153 0.009 0.346-0.08 0.457-0.19z"/>	<path d="m38.097 29.659c0.082 0.084 0.166 0.17 0.248 0.256 0.231-0.309 0.462-0.618 0.73-0.977-0.62-0.113-0.902 0.124-0.978 0.721z"/>	<path d="m0 6.143c0.249 0.297 0.459 0.549 0.669 0.8 0.115-0.728-0.033-0.881-0.669-0.8z"/>	<path d="m34.19 32.065c0.09 0.33 0.18 0.66 0.269 0.99 0.063-0.015 0.127-0.031 0.189-0.048 0.16-0.387 0.057-0.717-0.458-0.942z"/>	<path d="m19.35 14.179c-0.333-0.382-0.665-0.765-0.999-1.148-0.049 0.047-0.099 0.095-0.148 0.143 0.345 0.372 0.691 0.744 1.036 1.116 0.037-0.038 0.074-0.075 0.111-0.111z"/>	<path d="m28.664 5.764c0.111-0.165 0.252-0.318 0.315-0.499 0.024-0.07-0.127-0.202-0.284-0.43-0.148 0.304-0.271 0.472-0.301 0.656-0.014 0.073 0.174 0.181 0.27 0.273z"/>	<ellipse cy="20.872" cx="18.219" rx="2.027" ry="1.834"/>	<path d="m29.324 20.224c-0.111-0.207-0.209-0.438-0.41-0.638-0.173-0.214-0.396-0.413-0.678-0.565-0.26-0.166-0.593-0.267-0.908-0.321-0.328-0.048-0.645-0.032-0.945 0.027-0.288 0.07-0.566 0.164-0.791 0.301-0.467 0.256-0.797 0.596-1.012 0.929-0.227 0.314-0.338 0.64-0.396 0.868-0.042 0.223-0.039 0.361-0.039 0.361s0.125-0.041 0.345-0.111c0.189-0.051 0.46-0.123 0.784-0.209 0.309-0.073 0.642-0.152 0.951-0.187 0.156-0.03 0.302-0.021 0.438-0.036 0.134 0.011 0.258 0.006 0.369 0.033 0.115 0.016 0.223 0.037 0.34 0.08 0.055 0.025 0.115 0.044 0.182 0.057 0.06 0.035 0.119 0.073 0.187 0.102 0.138 0.047 0.261 0.158 0.398 0.236 0.144 0.072 0.268 0.186 0.399 0.275 0.12 0.099 0.264 0.176 0.367 0.27 0.104 0.09 0.215 0.164 0.303 0.229 0.182 0.126 0.306 0.198 0.306 0.198s0.034-0.13 0.06-0.356c0.017-0.226 0.054-0.558-0.051-0.932-0.049-0.189-0.08-0.405-0.199-0.611z"/></g></svg><svg xmlns:xlink="http://www.w3.org/1999/xlink" id="buns" xml:space="preserve" height="30" viewBox="0 0 48 30.317" width="48" version="1.1" y="39" x="0px" enable-background="new 0 0 48 30.317"><g fill="#F9B43B">	<path d="m20.475 5.926l0.494 0.482c0.582 0.569 1.246 0.883 1.869 0.883 0.555 0 1.05-0.256 1.36-0.702 0.25-0.359 0.204-0.811 0.155-1.048-0.075-0.361-0.247-0.635-0.498-0.79-0.427-0.265-0.852-0.399-1.263-0.399-0.448 0-1.089 0.167-1.652 0.916 0.185-0.029 0.37-0.062 0.552-0.079 0.014 0.091 0.027 0.182 0.042 0.273-0.259 0.021-0.52 0.041-0.78 0.062l-0.279 0.402z"/>	<path d="m12.994 9.065l-0.699-0.837-0.605 0.908c-0.037 0.054-0.087 0.112-0.136 0.171-0.243 0.292-0.61 0.734-0.387 1.289 0.173 0.429 0.431 0.801 0.659 1.129 0.079 0.114 0.158 0.227 0.233 0.342l0.342 0.448 1.325-0.239 0.16-0.444c0.019-0.052 0.049-0.109 0.078-0.167 0.142-0.29 0.381-0.774 0.1-1.253-0.23-0.394-0.516-0.716-0.792-1.028-0.094-0.105-0.188-0.211-0.278-0.319z"/>	<path d="m31.183 10.282l2.492-2.583-0.654-0.563c-0.055-0.048-0.119-0.113-0.184-0.176-0.295-0.291-0.55-0.541-0.949-0.541l-0.238 0.003-0.191 0.113c-0.535 0.314-0.982 0.715-1.385 1.099-0.557 0.527-0.113 1.083 0.21 1.488 0.097 0.122 0.21 0.263 0.323 0.41l0.576 0.75z"/>	<path d="m16.737 8.547c0.315 0 0.521-0.147 0.861-0.392 0.122-0.087 0.269-0.193 0.436-0.302l0.986-0.647-1.403-1.027c-0.309-0.229-0.572-0.423-0.838-0.599-0.361-0.012-0.723-0.033-1.084-0.101 0.311 0 0.622 0.004 0.933 0.005-0.068-0.042-0.135-0.085-0.205-0.126l-0.2-0.113h-0.219c-0.404 0-0.64 0.251-0.913 0.543-0.055 0.058-0.109 0.118-0.155 0.162l-0.606 0.575 0.866 0.875c0.076 0.078 0.157 0.157 0.235 0.236 0.182-0.143 0.458-0.196 0.838-0.154-0.206 0.125-0.301 0.359-0.419 0.557 0.116 0.107 0.229 0.216 0.353 0.318l0.242 0.19h0.292z"/>	<path d="m6.683 12.869c-0.062 0.327-0.124 0.659-0.197 0.995l-0.35 1.597h4.374l0.22 0.533 0.102-0.533h17.178c-0.071 0.114-0.127 0.251-0.151 0.44 0.08 0.081 0.159 0.162 0.238 0.246 0.164-0.221 0.333-0.447 0.512-0.686h15.08l-0.114-1.772c-0.013-0.262-0.027-0.479-0.054-0.694-0.437-3.416-2.178-6.204-5.325-8.523-3.564-2.625-8.234-4.07-13.149-4.07-1.776 0-3.563 0.2-5.313 0.594l-0.582 0.157 0.113 0.256c-0.094 0.134-0.17 0.305-0.159 0.505 0.01 0.18 0.083 0.318 0.174 0.425l-0.053 0.021 0.108 0.43c0.018 0.069 0.042 0.141 0.068 0.213 0.005 0.016 0.012 0.035 0.019 0.054-0.063-0.118-0.125-0.236-0.186-0.35-0.083 0.021-0.167 0.044-0.25 0.065 0.009 0.197-0.011 0.41-0.005 0.609 0.154-0.045 0.313-0.08 0.47-0.119l0.007 0.506 0.608-0.145c2.134-0.509 4.332-0.687 6.481-0.54l-0.813 0.767 1.225 1.255c0.315 0.33 0.643 0.671 1.038 1l0.382 0.3h0.466c0.463 0 0.771-0.212 1.154-0.474 0.115-0.079 0.252-0.172 0.406-0.269l1.632-1.016-1.057-0.791c2.099 0.605 4.022 1.534 5.653 2.735 0.16 0.118 0.304 0.24 0.454 0.36-0.555 0.152-1.062 0.897-1.065 0.905l-0.234 0.448 0.268 0.407c0.268 0.403 0.568 0.764 0.859 1.113l0.741 0.899 0.048-0.039c-0.192-0.484-0.326-1.001-0.691-1.389-0.103-0.11-0.038-0.377-0.051-0.571 0.065-0.017 0.132-0.034 0.197-0.051 0.381 0.5 0.761 1.001 1.15 1.514l1.051-0.864c0.742 1.066 1.233 2.228 1.47 3.506h-5.209c0.072-0.056 0.143-0.112 0.208-0.166 0.076-0.062 0.151-0.126 0.227-0.176l0.931-0.611-2.454-1.999-2.379 2.061 0.992 0.573c0.089 0.052 0.178 0.116 0.268 0.179 0.063 0.045 0.133 0.092 0.203 0.139h-7.494l1.725-2.227-1.203-1.258c-0.006 0.087-0.025 0.184-0.061 0.294-0.059 0.187 0.255 0.502 0.415 0.746 0.089 0.137 0.216 0.249 0.419 0.477-0.878-0.263-0.936-0.307-1.246-0.976-0.193-0.416-0.376-0.838-0.562-1.258l-0.422 0.644c-0.051 0.078-0.117 0.156-0.182 0.234-0.246 0.301-0.583 0.713-0.545 1.253 0.037 0.516 0.355 0.891 0.612 1.192 0.069 0.083 0.142 0.164 0.198 0.247l0.441 0.633h-6.942l0.864-0.85c0.323-0.313 0.658-0.637 0.963-1.005 0.428-0.517 0.068-1.023-0.194-1.393-0.088-0.125-0.195-0.274-0.306-0.445l-0.644-0.993-0.699 0.955c-0.123 0.167-0.237 0.321-0.343 0.463-0.327 0.437-0.584 0.783-0.811 1.176-0.343 0.596 0.133 1.057 0.418 1.332 0.057 0.055 0.114 0.109 0.156 0.156l0.552 0.604h-9.36c0.103-0.527 0.214-1.026 0.374-1.48 0.704-1.993 2.073-3.627 4.309-5.145 0.655-0.444 1.36-0.847 2.111-1.207l0.01-0.001-0.003-0.003c0.771-0.369 1.591-0.692 2.453-0.968l0.422-0.135-0.495-2.6-0.534 0.166c-2.018 0.624-3.849 1.488-5.442 2.57-0.71 0.482-1.381 1.011-1.994 1.572l-0.202 0.253 0.055 0.276c0.004 0.059 0.012 0.114 0.021 0.166l-0.311-0.274c-1.189 1.183-2.044 2.46-2.634 3.869-0.474 0.136-0.948 0.273-1.423 0.409 0.034 0.1 0.066 0.2 0.1 0.299 0.396-0.13 0.793-0.261 1.19-0.392-0.035 0.091-0.081 0.177-0.113 0.27-0.277 0.786-0.427 1.589-0.577 2.395zm18.633-0.945c0.099-0.485 1.085-1.1 1.519-0.943 0.096 0.034 0.176 0.342 0.133 0.485-0.154 0.505-0.691 0.831-1.484 0.875-0.046-0.105-0.196-0.279-0.168-0.417z"/>	<polygon points="18.757 1.756 18.748 1.759 18.75 1.763"/>	<path d="m43.872 29.581c0.189 0.301 0.301 0.479 0.463 0.736 0.242-0.171 0.476-0.297 0.643-0.482 0.053-0.059-0.082-0.405-0.12-0.404-0.293 0.013-0.584 0.079-0.986 0.15z"/>	<path d="m44.658 20.23c-0.769-0.087-1.122 0.218-1.101 0.876 0.728 0.15 0.665-0.609 1.101-0.876z"/>	<path d="m34.474 23.045c0.032 0.1 0.066 0.199 0.099 0.298 0.534-0.176 1.068-0.352 1.603-0.528-0.027-0.08-0.054-0.158-0.08-0.237-0.542 0.154-1.083 0.311-1.622 0.467z"/>	<path d="m35.953 17.323c-0.173 0.074-0.309 0.236-0.454 0.356 0.17 0.069 0.34 0.187 0.517 0.198 0.146 0.009 0.331-0.076 0.437-0.182 0.059-0.059 0.025-0.332-0.03-0.355-0.14-0.056-0.336-0.075-0.47-0.017z"/>	<path d="m27.376 21.204c-0.19 0.455-0.338 0.805-0.493 1.176 0.676 0.088 0.566-0.543 0.772-0.861 0.022-0.036-0.191-0.219-0.279-0.315z"/>	<path d="m29.559 10.574c0.022 0.192 0.144 0.394 0.276 0.545 0.07 0.08 0.254 0.059 0.387 0.083 0.014-0.162 0.013-0.326 0.045-0.483 0.047-0.224 0.117-0.442 0.184-0.68h-0.711c-0.073 0.195-0.2 0.374-0.181 0.535z"/>	<path d="m27.397 8.156c0.125-0.54 0.25-1.08 0.392-1.692-0.593 0.261-0.815 1.045-0.392 1.692z"/>	<path d="m15.946 10.429c0.242-0.172 0.476-0.297 0.643-0.483 0.053-0.059-0.082-0.406-0.12-0.404-0.292 0.013-0.583 0.08-0.985 0.15 0.188 0.301 0.3 0.479 0.462 0.737z"/>	<path d="m29.089 8.827c-0.488-0.455-0.678-0.467-1.246-0.099 0.094 0.181 0.174 0.33 0.268 0.51 0.316-0.133 0.632-0.266 0.978-0.411z"/>	<path d="m0 11.548c0.004 0.059 0.008 0.119 0.013 0.178 0.25 0.167 0.501 0.332 0.95 0.629-0.035-0.377-0.011-0.775-0.087-0.794-0.274-0.074-0.582-0.019-0.876-0.013z"/>	<path d="m9.129 16.17c-0.018-0.016-0.033-0.03-0.051-0.047-0.002 0.018 0 0.031-0.002 0.047h0.053z"/>	<path d="m1.665 11.694c0.416 0.248 0.875 0.128 1.324 0.099 0.009-0.082 0.018-0.165 0.027-0.247-0.442-0.029-0.885-0.056-1.327-0.084-0.008 0.079-0.016 0.155-0.024 0.232z"/>	<path d="m28.691 17.926v-1.268c-0.078 0.003-0.156 0.006-0.235 0.011 0.031 0.429 0.063 0.856 0.094 1.285 0.047-0.009 0.095-0.018 0.141-0.028z"/>	<path d="m9.933 1.098c-0.318-0.366-0.637-0.732-0.955-1.098-0.047 0.045-0.095 0.091-0.143 0.136 0.331 0.355 0.661 0.711 0.992 1.067 0.035-0.035 0.07-0.069 0.106-0.105z"/>	<path d="m46.571 4.442v0.676c0.441 0.094 0.885 0.188 1.326 0.282 0.035-0.104 0.069-0.207 0.103-0.31-0.477-0.216-0.952-0.432-1.429-0.648z"/>	<path d="m43.439 19.361l-0.075-1.169h-1.171c-0.299 0-0.599 0.01-0.973 0.021-0.601 0.019-1.198 0.024-1.649-0.029-0.527-0.063-1.008-0.093-1.469-0.093-0.421 0-0.82 0.033-1.207 0.086h-7.406c-0.137-0.006-0.27-0.009-0.397-0.009l-1.567 0.009h-0.071l-1.64 0.01v0.002h-0.35c-1.891 0.008-3.956 0.011-6.364 0.011l-12.334-0.008-0.051 1.195c-0.108 2.549 0.884 5.131 2.723 7.084 1.844 1.958 4.374 3.107 6.941 3.152 3.168 0.057 6.348 0.084 9.449 0.084 2.593 0 5.21-0.02 7.778-0.059 2.682-0.04 5.315-1.249 7.225-3.316 1.311-1.418 2.185-3.176 2.492-4.994l0.043 0.039 0.082-1.008-0.013 0.001c0.023-0.371 0.024-0.703 0.004-1.009zm-17.408-0.593c0.062 0.164 0.095 0.317 0.126 0.472-0.059-0.157-0.123-0.315-0.209-0.471-0.031-0.058-0.047-0.11-0.051-0.169l-0.01-0.219 0.144 0.387zm12.966 5.87c-1.447 1.567-3.426 2.483-5.429 2.514-5.604 0.085-11.427 0.077-17.145-0.025-1.899-0.034-3.783-0.896-5.167-2.367-1.085-1.153-1.781-2.583-1.987-4.069l9.831 0.006c2.408 0 4.464-0.004 6.353-0.012v0.002l0.477-0.003c0.057-0.001 0.118-0.001 0.176-0.001l0.959 0.006-0.01-0.012 2.107-0.012c0.25 0 0.469 0.02 0.773 0.07h6.76l0.095-0.011c0.641-0.144 1.363-0.166 2.197-0.087l0.631 0.056c0.381 0.028 0.824 0.038 1.285 0.027-0.189 1.405-0.856 2.78-1.906 3.918z"/></g></svg><svg xmlns:xlink="http://www.w3.org/1999/xlink" id="cheese" xml:space="preserve" height="34" viewBox="0 0 38.126 34.138" width="38" version="1.1" y="69" x="0px" enable-background="new 0 0 38.126 34.138"><g fill="#F9B43B">	<path d="m1.425 4.438c0.175-0.269 0.354-0.537 0.535-0.802 0.058-0.086 0.109-0.206 0.191-0.24 0.462-0.186 0.855-0.038 1.147 0.473 0.139-0.108 0.34-0.189 0.38-0.317 0.05-0.163-0.018-0.37-0.063-0.55-0.032-0.125-0.113-0.236-0.171-0.355-0.034 0.02-0.069 0.039-0.103 0.058 0.012 0.202 0.022 0.405 0.032 0.583-0.501 0.131-0.538-0.734-1.019-0.34-0.261 0.216-0.826 0.053-0.741 0.752-0.146-0.228-0.217-0.34-0.287-0.45-0.039 0.021-0.078 0.041-0.118 0.062 0.081 0.141 0.17 0.277 0.238 0.425 0.037 0.079 0.055 0.178 0.039 0.261-0.006 0.035-0.119 0.051-0.183 0.075-0.063 0.025-0.16 0.033-0.183 0.078-0.124 0.241-0.273 0.19-0.456 0.077-0.136-0.084-0.29-0.14-0.436-0.208-0.017 0.037-0.033 0.072-0.05 0.107 0.331 0.246 0.663 0.489 0.998 0.737 0.098-0.168 0.169-0.3 0.25-0.426z"/>	<path d="m15.785 3.683c-0.35 0.1-0.659 0.189-0.967 0.277-0.008 0.032-0.015 0.063-0.023 0.095 0.348 0.052 0.695 0.104 1.043 0.156-0.424-0.145 0.002-0.431-0.053-0.528z"/>	<path d="m7.745 2.725c-0.124-0.157-0.322-0.254-0.491-0.373-0.023 0.035-0.045 0.071-0.067 0.106 0.072 0.199 0.146 0.397 0.275 0.753 0.137-0.228 0.317-0.443 0.283-0.486z"/>	<path d="m12.218 7.835c-0.035 0.154-0.075 0.307-0.114 0.46 0.526-0.486 0.571-0.775 0.216-0.953-0.034 0.165-0.065 0.332-0.102 0.493z"/>	<path d="m7.999 0.47c0.026-0.011-0.017-0.204-0.027-0.294-0.299 0.178-0.528 0.314-0.772 0.461 0.347 0.331 0.549-0.072 0.799-0.167z"/>	<path d="m13.892 27.467c0.376 0.123 0.752 0.247 1.128 0.37 0.019-0.056 0.038-0.112 0.055-0.169-0.371-0.137-0.743-0.273-1.115-0.412-0.022 0.07-0.045 0.14-0.068 0.211z"/>	<path d="m13.273 32.736c0.042-0.007 0.084-0.016 0.125-0.024-0.052-0.27-0.104-0.54-0.174-0.902-0.429 0.464-0.193 0.697 0.049 0.926z"/>	<path d="m9.755 33.905c0.05 0.004 0.1 0.005 0.15 0.007 0.02-0.434 0.04-0.867 0.06-1.301-0.053 0.003-0.105 0.005-0.157 0.007-0.018 0.43-0.036 0.859-0.053 1.287z"/>	<path d="m29.435 9.618c-0.015 0.03 0.031 0.087 0.08 0.205 0.067-0.196 0.106-0.311 0.174-0.509 0.123 0.179 0.205 0.301 0.293 0.419 0.165 0.22 0.48 0.215 0.552-0.028 0.175-0.588 0.612-0.724 1.202-0.733-0.113-0.332-0.263-0.426-0.541-0.205-0.155 0.121-0.328 0.226-0.502 0.323-0.401 0.225-0.662 0.081-0.705-0.384-0.007-0.08-0.014-0.161-0.02-0.23-0.131-0.035-0.26-0.115-0.337-0.078-0.112 0.052-0.187 0.184-0.278 0.282 0.323 0.288 0.236 0.609 0.082 0.938z"/>	<path d="m35.847 2.985c-0.217 0.427-0.488 0.499-0.917 0.273 0.143 0.254 0.284 0.507 0.427 0.759-0.008 0.102-0.017 0.2-0.024 0.301 0.281-0.182 0.563-0.362 0.761-0.49-0.145-0.165-0.145-0.165 0.289-0.789-0.161-0.226-0.352-0.415-0.536-0.054z"/>	<path d="m38.074 4.522c-0.35 0.1-0.658 0.189-0.967 0.277-0.008 0.032-0.016 0.063-0.023 0.095 0.348 0.052 0.695 0.104 1.043 0.156-0.424-0.144 0.002-0.43-0.053-0.528z"/>	<path d="m30.034 3.564c-0.124-0.156-0.321-0.253-0.491-0.373-0.022 0.034-0.045 0.071-0.066 0.105 0.072 0.2 0.145 0.398 0.275 0.754 0.136-0.227 0.316-0.443 0.282-0.486z"/>	<path d="m34.628 5.438c-0.371-0.138-0.743-0.274-1.114-0.412-0.022 0.07-0.046 0.141-0.069 0.211 0.377 0.123 0.753 0.247 1.129 0.37 0.018-0.057 0.037-0.114 0.054-0.169z"/>	<path d="m34.507 8.675c-0.035 0.154-0.076 0.307-0.114 0.46 0.526-0.486 0.571-0.775 0.216-0.953-0.033 0.165-0.065 0.332-0.102 0.493z"/>	<path d="m32.827 10.505c0.042-0.007 0.083-0.016 0.125-0.024-0.053-0.269-0.104-0.539-0.175-0.902-0.429 0.465-0.194 0.697 0.05 0.926z"/>	<path d="m31.134 4.579c0.039-0.042 0.078-0.086 0.118-0.129-0.239-0.199-0.478-0.401-0.716-0.602-0.036 0.042-0.074 0.082-0.111 0.122 0.133 0.313 0.443 0.438 0.709 0.609z"/>	<path d="m30.288 1.31c0.026-0.01-0.017-0.204-0.026-0.294-0.299 0.177-0.528 0.314-0.771 0.461 0.344 0.332 0.547-0.072 0.797-0.167z"/>	<path d="m17.718 27.996l0.09-0.001c2.33-0.051 4.185-1.984 4.134-4.311-0.049-2.28-1.943-4.136-4.223-4.136l-0.09 0.001c-1.122 0.024-2.172 0.491-2.958 1.313-0.783 0.819-1.2 1.885-1.174 2.999 0.055 2.281 1.948 4.135 4.221 4.135zm0.001-6.024c0.958 0 1.766 0.779 1.8 1.735 0.035 0.985-0.736 1.821-1.717 1.864-0.026 0.001-0.052 0.002-0.077 0.002-0.337 0-0.652-0.1-0.923-0.264 0.01-0.015 0.017-0.025 0.027-0.04-0.114-0.162-0.247-0.298-0.38-0.231-0.317-0.319-0.519-0.753-0.528-1.232-0.019-0.984 0.767-1.807 1.75-1.833l0.048-0.001z"/>	<path d="m8.959 27.135l0.086-0.001c0.744-0.021 1.41-0.312 1.935-0.762 0.156 0.193 0.39 0.304 0.601 0.438 0.04-0.043 0.079-0.086 0.118-0.13-0.183-0.152-0.365-0.306-0.547-0.458 0.593-0.589 0.957-1.405 0.931-2.304-0.047-1.675-1.45-3.038-3.126-3.038l-0.088 0.001c-0.827 0.023-1.601 0.373-2.178 0.984s-0.882 1.404-0.859 2.231c0.048 1.676 1.451 3.039 3.127 3.039zm-0.001-3.942v0.124c0.438 0 0.69 0.25 0.692 0.686 0.002 0.438-0.249 0.691-0.699 0.696-0.4 0-0.636-0.231-0.702-0.689 0.06-0.459 0.297-0.692 0.705-0.692l0.004-0.125z"/>	<path d="m26.691 23.919l0.063-0.001c0.758-0.017 1.469-0.334 2-0.893 0.53-0.56 0.811-1.284 0.789-2.042-0.045-1.56-1.377-2.822-2.951-2.769-1.542 0.054-2.777 1.353-2.753 2.896 0.024 1.549 1.303 2.809 2.852 2.809zm-0.389-2.868c-0.01-0.07 0.105-0.213 0.227-0.364 0.053-0.064 0.109-0.136 0.167-0.213 0.054 0.076 0.106 0.145 0.154 0.208 0.13 0.171 0.233 0.306 0.229 0.402-0.003 0.106-0.254 0.36-0.334 0.369-0.171-0.03-0.423-0.259-0.443-0.402z"/>	<path d="m35.343 27.38c-0.235-0.027-0.471-0.055-0.707-0.071-1.23-0.083-2.194-1.053-2.24-2.255-0.048-1.236 0.861-2.283 2.113-2.436 0.218-0.026 0.435-0.063 0.65-0.1 0.118-0.021 0.235-0.041 0.354-0.06l0.108-0.017-0.177-6.606-0.048-0.035c-0.061-0.047-0.123-0.092-0.187-0.138-0.138-0.099-0.268-0.192-0.384-0.303-1.392-1.317-2.789-2.631-4.186-3.944l-1.783-1.679-0.702 1.844-0.415-0.674-2.158-0.972 0.537 0.509c0.728 0.688 1.454 1.379 2.18 2.068 0.682 0.646 1.361 1.293 2.042 1.938 0.094 0.09 0.183 0.184 0.292 0.298l0.01 0.011-3.958-0.549c-4.08-0.567-8.298-1.153-12.449-1.712-0.65-0.087-0.962-0.236-0.977-0.852-0.004-0.235-0.116-0.466-0.227-0.695-0.801-1.667-2.157-2.586-3.92-2.657-0.153-0.007-0.298 0.003-0.445 0.009 0.209-0.12 0.473-0.165 0.781-0.17-0.114-0.332-0.263-0.425-0.541-0.205-0.156 0.122-0.328 0.225-0.502 0.323-0.402 0.226-0.663 0.081-0.705-0.384-0.007-0.08-0.013-0.161-0.02-0.23-0.131-0.035-0.26-0.115-0.337-0.078-0.112 0.051-0.187 0.183-0.278 0.282 0.263 0.234 0.25 0.492 0.154 0.757-0.917 0.368-1.68 1.063-2.273 2.081-0.13 0.225-0.325 0.416-0.427 0.419l-0.072 0.001c-0.272 0-0.55-0.052-0.873-0.111-0.088-0.017-0.179-0.033-0.272-0.05 0.107-0.13 0.209-0.256 0.31-0.379 0.288-0.354 0.561-0.689 0.848-0.999 1.978-2.134 4.257-3.82 6.878-5.103 0.316 0.104 0.632 0.207 0.947 0.311 0.019-0.057 0.037-0.112 0.055-0.169-0.248-0.091-0.495-0.183-0.742-0.274 1.62-0.769 3.371-1.385 5.265-1.853 0.52-0.127 0.8-0.057 1.16 0.287 1.873 1.788 3.752 3.568 5.632 5.349l1.828 1.732 0.068-0.018c0.979-0.262 1.469-0.799 1.539-1.69l0.006-0.06-0.044-0.041c-1.161-1.099-2.2-2.088-3.163-3.013 0.12-0.181 0.239-0.362 0.361-0.542 0.058-0.086 0.108-0.206 0.191-0.239 0.461-0.187 0.854-0.038 1.147 0.473 0.139-0.108 0.34-0.189 0.379-0.318 0.051-0.162-0.018-0.369-0.063-0.549-0.031-0.125-0.112-0.235-0.171-0.354-0.034 0.019-0.068 0.038-0.103 0.056 0.012 0.203 0.021 0.406 0.031 0.583-0.5 0.132-0.537-0.733-1.018-0.339-0.262 0.216-0.826 0.052-0.741 0.752-0.146-0.229-0.217-0.34-0.288-0.45-0.039 0.021-0.078 0.041-0.117 0.062 0.081 0.141 0.17 0.277 0.238 0.425 0.037 0.078 0.055 0.178 0.039 0.261-0.002 0.012-0.026 0.02-0.046 0.027-1.286-1.235-2.435-2.354-3.525-3.432-1.014-1.005-1.909-1.433-2.992-1.433-0.462 0-0.966 0.081-1.543 0.246-2.669 0.767-5.05 1.758-7.161 2.98-0.086-0.072-0.173-0.144-0.259-0.217-0.037 0.041-0.074 0.081-0.111 0.121 0.039 0.093 0.097 0.166 0.161 0.231-3.38 2.003-6.063 4.61-8.096 7.884-0.022 0.036-0.06 0.07-0.099 0.107-0.022 0.021-0.045 0.042-0.066 0.064l-0.036 0.038 0.466 17.339-0.001-0.001 0.018 0.621 0.562 0.071-0.385-0.459 0.078-0.17c0.086 0.041 0.173 0.08 0.26 0.119 0.281 0.127 0.546 0.246 0.763 0.424l0.272 0.22 1.048 0.138c1.313 0.172 2.627 0.344 3.939 0.525 0.992 0.138 1.984 0.276 2.977 0.414-0.069 0.063-0.131 0.144-0.197 0.216 0.323 0.288 0.236 0.608 0.081 0.938-0.014 0.029 0.032 0.087 0.081 0.204 0.067-0.195 0.106-0.311 0.173-0.508 0.124 0.179 0.205 0.3 0.293 0.418 0.165 0.221 0.48 0.215 0.552-0.027 0.175-0.589 0.612-0.724 1.202-0.734-0.032-0.095-0.069-0.164-0.11-0.218 4.518 0.627 9.035 1.255 13.551 1.885l0.101 0.014 0.051-0.14c0.077-0.211 0.157-0.43 0.218-0.651 0.211-0.775 0.512-0.865 0.72-0.865 0.21 0 0.477 0.104 0.811 0.316-0.535 0.425-0.944 0.827-1.247 1.229l-0.129 0.17 3.557 0.495c1.047 0.146 2.111 0.313 3.139 0.476 0.48 0.075 0.96 0.15 1.439 0.225l0.012 0.001h0.011c0.503-0.013 1.005-0.025 1.507-0.04l0.125-0.004-0.18-6.667-0.415-0.048zm-28.993-1.307c-0.031-0.125-0.112-0.236-0.171-0.354-0.034 0.02-0.068 0.038-0.102 0.057 0.011 0.203 0.021 0.406 0.031 0.583-0.501 0.13-0.538-0.735-1.018-0.339-0.262 0.216-0.826 0.052-0.741 0.752-0.146-0.229-0.217-0.34-0.288-0.45-0.039 0.02-0.078 0.04-0.117 0.062 0.081 0.141 0.17 0.276 0.238 0.424 0.036 0.079 0.055 0.178 0.039 0.262-0.007 0.036-0.12 0.051-0.184 0.076-0.063 0.024-0.16 0.032-0.183 0.078-0.048 0.094-0.101 0.134-0.157 0.152-0.071-0.01-0.142-0.02-0.213-0.029-0.028-0.015-0.056-0.027-0.086-0.046-0.136-0.084-0.289-0.14-0.435-0.208-0.017 0.035-0.034 0.07-0.051 0.106 0.038 0.027 0.075 0.056 0.113 0.083-0.045-0.006-0.09-0.013-0.135-0.019l-0.376-13.965c0.128 0.017 0.255 0.034 0.38 0.052 0.411 0.058 0.8 0.111 1.196 0.146 0.298 0.027 0.421 0.139 0.524 0.478 0.565 1.872 1.863 2.994 3.752 3.247 1.792 0.235 3.303-0.475 4.331-2.034 0.244-0.37 0.417-0.438 0.796-0.382 3.601 0.515 7.265 1.022 10.808 1.514l3.017 0.419 0.027 0.004 1.084-0.314 0.163 0.488 0.271 0.038c0.91 0.126 1.819 0.253 2.74 0.382l1.452 0.204 0.019 0.617c0.021 0.731 0.043 1.423 0.039 2.12-0.001 0.073-0.135 0.241-0.265 0.305-1.956 0.964-2.916 2.486-2.854 4.526 0.061 2.013 1.092 3.464 3.066 4.313 0.15 0.065 0.299 0.212 0.305 0.278 0.041 0.454 0.049 0.915 0.058 1.402 0.003 0.136 0.005 0.273 0.009 0.414l-1.566-0.218-13.219-1.84c-4.821-0.671-9.632-1.341-14.442-2.011 0.162-0.248 0.326-0.494 0.492-0.739 0.058-0.086 0.108-0.205 0.191-0.238 0.461-0.187 0.855-0.038 1.147 0.472 0.139-0.108 0.34-0.189 0.38-0.317 0.048-0.164-0.019-0.371-0.065-0.551zm25.511 5.308l1.971 1.814-0.16 0.177c-0.984-0.123-1.895-0.271-1.813-1.963l0.002-0.028zm-22.803-16.536c-0.262 0.017-0.525-0.021-0.783-0.108l-0.121-0.041-0.038 0.121c-0.183 0.578-0.443 0.92-1.133 0.886l0.578-1.379-0.062-0.06c-0.387-0.369-0.614-0.858-0.64-1.377-0.028-0.56 0.164-1.096 0.541-1.511 0.374-0.411 0.883-0.65 1.435-0.675 0.031-0.001 0.061-0.002 0.091-0.002 1.124 0 2.037 0.876 2.078 1.994 0.04 1.121-0.832 2.086-1.946 2.152zm-1.658-6.369c0.013 0.019 0.021 0.031 0.034 0.049-0.019 0.005-0.038 0.01-0.057 0.016 0.008-0.022 0.014-0.04 0.023-0.065zm4.242 22.522c-0.155 0.121-0.329 0.225-0.502 0.322-0.402 0.226-0.663 0.081-0.706-0.384-0.005-0.063-0.01-0.124-0.016-0.183 0.442 0.062 0.884 0.123 1.326 0.185-0.034 0.019-0.064 0.03-0.102 0.06z"/></g></svg><svg xmlns:xlink="http://www.w3.org/1999/xlink" id="cucumber" xml:space="preserve" height="38" viewBox="0 0 42 37.754" width="42" version="1.1" y="103" x="0px" enable-background="new 0 0 42 37.754"><g fill="#8BC03F" clip-rule="evenodd" fill-rule="evenodd">	<path d="m1.784 16.222c0.452-0.292 0.909-0.578 1.367-0.861 0.146-0.091 0.306-0.24 0.454-0.234 0.832 0.032 1.333 0.529 1.428 1.508 0.286-0.072 0.649-0.056 0.798-0.226 0.188-0.213 0.226-0.575 0.28-0.881 0.037-0.212-0.01-0.438-0.018-0.658-0.066 0.005-0.13 0.01-0.195 0.016-0.123 0.317-0.246 0.635-0.353 0.912-0.855-0.144-0.319-1.49-1.321-1.215-0.548 0.15-1.297-0.487-1.648 0.64-0.066-0.45-0.098-0.667-0.13-0.885-0.073 0.004-0.147 0.009-0.221 0.013 0.026 0.271 0.07 0.541 0.072 0.811 0.002 0.145-0.039 0.311-0.119 0.427-0.034 0.05-0.217-0.003-0.333-0.009-0.113-0.005-0.266-0.06-0.332-0.006-0.354 0.284-0.547 0.103-0.75-0.194-0.15-0.221-0.347-0.412-0.522-0.615-0.051 0.043-0.101 0.085-0.15 0.128 0.338 0.601 0.678 1.201 1.02 1.808 0.264-0.19 0.463-0.344 0.673-0.479z"/>	<path d="m9.167 27.649c0.667-0.776 1.429-0.684 2.338-0.298 0.052-0.583-0.111-0.829-0.687-0.683-0.322 0.081-0.656 0.119-0.988 0.148-0.376 0.035-0.638-0.047-0.779-0.223 0.103-0.137 0.141-0.299 0.113-0.492-0.02-0.133-0.076-0.248-0.147-0.354 0.043-0.127 0.089-0.255 0.128-0.365-0.177-0.143-0.32-0.352-0.462-0.351-0.207 0.003-0.412 0.155-0.617 0.243 0.015 0.035 0.022 0.066 0.034 0.099-0.196 0.065-0.398 0.124-0.516 0.258-0.396 0.448-0.758 0.938-1.064 1.452-0.187 0.314-0.05 0.648 0.258 0.868 0.294 0.21 0.694 0.175 0.942-0.103 0.18-0.203 0.313-0.448 0.485-0.66 0.018-0.021 0.042-0.041 0.062-0.062 0.012 0.062 0.024 0.126 0.037 0.185 0.101 0.453 0.586 0.662 0.863 0.338z"/>	<path d="m22.661 21.474c-0.09-0.453-0.254-0.871-0.78-0.447-0.622 0.503-1.088 0.429-1.587-0.209 0.044 0.483 0.088 0.967 0.132 1.451-0.081 0.146-0.162 0.293-0.243 0.439 0.554-0.082 1.108-0.167 1.498-0.227-0.11-0.349-0.11-0.349 0.98-1.007z"/>	<path d="m18.342 23.937c-0.474-0.465-0.947-0.928-1.421-1.393-0.082 0.092-0.165 0.184-0.248 0.275 0.49 0.446 0.979 0.893 1.469 1.338 0.066-0.073 0.133-0.146 0.2-0.22z"/>	<path d="m16.432 28.114c-0.165 0.23-0.325 0.46-0.493 0.684-0.158 0.211-0.325 0.416-0.488 0.623 1.136-0.383 1.402-0.792 0.981-1.307z"/>	<path d="m35.872 23.229c-0.58-0.075-0.832 0.081-0.708 0.661 0.069 0.323 0.095 0.66 0.113 0.992 0.042 0.769-0.368 1.055-1.097 0.773-0.126-0.049-0.252-0.099-0.362-0.143-0.149 0.172-0.363 0.307-0.366 0.449-0.006 0.206 0.139 0.416 0.22 0.626 0.671-0.271 1.088 0.097 1.468 0.573 0.033 0.043 0.152 0.017 0.369 0.031-0.248-0.247-0.391-0.39-0.637-0.637 0.357-0.055 0.603-0.086 0.845-0.131 0.453-0.084 0.679-0.561 0.367-0.85-0.751-0.693-0.631-1.451-0.212-2.344z"/>	<path d="m41.489 20.009c0.165-0.256 0.293-0.455 0.488-0.755-1.67 0.292-1.932 0.562-1.762 1.668 0.556-0.159 1.109-0.317 1.785-0.513-0.298-0.234-0.427-0.336-0.511-0.4z"/>	<path d="m26.498 21.778c-0.325 0.071-0.618 0.295-0.923 0.461 0.036 0.06 0.072 0.119 0.109 0.18 0.354 0.038 0.705 0.076 1.335 0.145-0.241-0.376-0.431-0.805-0.521-0.786z"/>	<path d="m36.817 18.333c0.223 0.173 0.447 0.342 0.664 0.518 0.205 0.166 0.404 0.34 0.605 0.511-0.341-1.15-0.74-1.43-1.269-1.029z"/>	<path d="m38.983 22.729c0.019-0.069 0.037-0.138 0.055-0.206-0.443-0.121-0.886-0.242-1.482-0.406 0.38 0.987 0.902 0.806 1.427 0.612z"/>	<path d="m35.303 6.644c-0.313-0.777-0.545-1.586-0.835-2.372-1.395-3.774-4.777-4.657-7.499-4.135-3.033 0.582-5.194 2.406-6.804 4.964-0.37 0.587-0.739 1.175-1.129 1.748-0.126 0.186-0.303 0.344-0.48 0.485-0.505 0.397-0.734 0.916-0.58 1.528 0.103 0.409-0.006 0.699-0.245 0.994-0.674 0.832-1.511 1.472-2.405 2.042-0.099 0.063-0.243 0.081-0.364 0.076-0.98-0.038-1.495 0.443-1.7 1.405-0.136 0.638-0.354 1.294-0.694 1.844-0.876 1.414-2.025 2.596-3.401 3.546-0.112 0.078-0.252 0.153-0.384 0.161-1.131 0.073-1.523 0.432-1.688 1.561-0.166 1.133-0.617 2.099-1.594 2.768-0.454 0.311-0.89 0.646-1.329 0.978-0.219 0.165-0.426 0.213-0.715 0.144-0.856-0.203-1.698 0.322-1.777 1.145-0.104 1.084-0.495 2.072-0.848 3.082-0.352 1.006-0.637 2.034-0.799 2.556-0.281 3.134 1.25 5.524 3.691 6.261 0.684 0.207 1.42 0.324 2.133 0.33 1.472 0.013 2.945-0.123 4.417-0.113 1.39 0.009 2.496-0.402 3.16-1.699 0.053-0.104 0.175-0.195 0.285-0.243 0.796-0.343 1.594-0.686 2.399-1.007 0.814-0.324 1.643-0.505 2.541-0.362 0.897 0.143 1.592-0.491 1.682-1.403 0.019-0.19 0.115-0.442 0.26-0.54 0.712-0.482 1.44-0.94 2.167-1.399 0.006 0.277 0.133 0.533 0.652 0.717-0.451 0.05-0.669 0.074-0.888 0.098 0.001 0.074 0.003 0.147 0.005 0.222 0.271-0.017 0.543-0.051 0.813-0.042 0.145 0.003 0.309 0.05 0.421 0.135 0.049 0.035-0.011 0.217-0.021 0.332-0.009 0.113-0.068 0.264-0.019 0.331 0.271 0.364 0.083 0.55-0.222 0.741-0.227 0.143-0.424 0.332-0.635 0.5 0.042 0.053 0.082 0.104 0.123 0.156 0.613-0.316 1.225-0.634 1.844-0.953-0.178-0.271-0.324-0.475-0.452-0.69-0.274-0.462-0.544-0.931-0.81-1.398-0.085-0.149-0.229-0.313-0.217-0.462 0.002-0.031 0.016-0.053 0.02-0.084 0.092-0.057 0.18-0.119 0.271-0.176 0.211-0.129 0.49-0.182 0.743-0.205 0.763-0.07 1.303-0.48 1.425-1.221 0.114-0.684 0.465-1.207 0.938-1.67 0.813-0.792 1.764-1.35 2.862-1.652 0.792-0.218 1.276-0.852 1.149-1.602-0.144-0.846 0.084-1.563 0.553-2.25 0.553-0.811 1.074-1.645 1.631-2.454 0.078-0.114 0.264-0.199 0.41-0.213 1.079-0.107 1.662-1.026 1.35-2.055-0.121-0.396-0.189-0.873-0.089-1.263 0.423-1.635 0.985-3.237 0.962-4.961-0.001-0.137 0.145-0.304 0.266-0.409 0.635-0.552 0.736-1.308 0.32-2.028-0.329-0.578-0.624-1.177-0.87-1.789zm-5.462 12.104c-0.056 0.083-0.118 0.163-0.175 0.241-0.671-0.292-0.82-0.219-1.309 0.287-0.301 0.311-0.693 0.561-1.087 0.749-0.503 0.238-0.745 0.554-0.603 0.984 0.121 0.369 0.437 0.527 0.85 0.47 0.226-0.011 0.433-0.071 0.624-0.171-0.13 0.604-0.247 1.201-0.401 1.787-0.025 0.1-0.215 0.167-0.34 0.227-0.295 0.142-0.575 0.304-0.854 0.465 0.083-0.127 0.183-0.248 0.284-0.355 0.121-0.127 0.311-0.187 0.471-0.277-0.046-0.076-0.092-0.152-0.137-0.229-0.522 0.295-1.045 0.59-1.623 0.916-0.223 0.258-0.521 0.594-0.809 0.943-0.047 0.057-0.071 0.178-0.041 0.237 0.018 0.035 0.05 0.069 0.087 0.097-0.48 0.471-0.917 0.988-1.254 1.613-0.289 0.533-0.651 0.821-1.19 1.061-1.778 0.785-3.381 1.832-4.625 3.364-0.072 0.089-0.208 0.163-0.322 0.176-0.756 0.083-1.475 0.289-2.179 0.544-0.259-0.349-0.615-0.389-1.238-0.27 0.072 0.22 0.145 0.443 0.219 0.67-0.011 0.004-0.022 0.008-0.033 0.013-0.611 0.261-1.227 0.513-1.843 0.763-0.635 0.257-1.053 0.74-1.407 1.303-0.079 0.125-0.24 0.275-0.37 0.281-1.5 0.072-3.002 0.123-4.504 0.165-0.302 0.008-0.605-0.044-0.907-0.077-1.736-0.191-2.364-1.715-2.153-2.912 0.126-0.719 0.39-1.415 0.616-2.115 0.218-0.673 0.456-1.34 0.706-2.002 0.048-0.129 0.172-0.266 0.296-0.323 1.491-0.694 2.818-1.644 3.883-2.871 0.579-0.665 0.871-1.577 1.304-2.371 0.09-0.165 0.2-0.351 0.352-0.446 1.078-0.682 2.055-1.452 2.921-2.32 0.074 0.171 0.169 0.333 0.278 0.489-0.158 0.259-0.267 0.534-0.284 0.798-0.026 0.391 0.213 0.718 0.583 0.801 0.354 0.079 0.742-0.119 0.848-0.505 0.121-0.436 0.366-0.69 0.793-0.825 0.411-0.129 0.597-0.498 0.5-0.887-0.089-0.357-0.428-0.576-0.832-0.538-0.483 0.045-0.995 0.383-1.367 0.821l-0.222-0.459c1.072-1.139 1.957-2.444 2.594-3.969 0.052-0.125 0.191-0.241 0.318-0.307 0.425-0.222 0.828-0.473 1.217-0.738 0.057 0.198 0.167 0.378 0.396 0.53 0.407 0.27 0.73 0.663 1.113 0.974 0.107 0.086 0.368 0.152 0.428 0.094 0.1-0.098 0.19-0.295 0.176-0.428 0.31-0.063 0.531-0.322 0.587-0.743 0.059-0.451 0.292-0.765 0.673-1 0.436-0.271 0.546-0.687 0.306-1.067-0.221-0.349-0.651-0.437-1.07-0.198-0.732 0.417-1.151 1.038-1.31 1.712-0.156-0.16-0.331-0.308-0.515-0.45 0.646-0.522 1.239-1.11 1.777-1.764 0.563-0.685 0.939-1.454 0.996-2.357 0.007-0.12 0.07-0.246 0.138-0.351 0.492-0.765 1.007-1.517 1.484-2.291 0.912-1.482 2.1-2.651 3.719-3.331 1.104-0.463 2.234-0.561 3.385-0.149 0.796 0.287 1.369 0.821 1.694 1.584 0.328 0.769 0.586 1.568 0.88 2.352 0.092 0.245 0.208 0.486 0.315 0.728-0.043-0.041-0.09-0.08-0.13-0.121-0.122-0.125-0.176-0.318-0.26-0.48-0.077 0.043-0.155 0.085-0.233 0.128 0.274 0.533 0.55 1.065 0.855 1.655 0.015 0.013 0.033 0.031 0.048 0.044-0.033 0.461-0.205 0.935-0.294 1.401-0.029 0.156-0.043 0.316-0.047 0.475-0.009 0.28-0.058 0.492-0.343 0.669-0.172 0.106-0.234 0.432-0.287 0.671-0.051 0.227-0.057 0.412-0.367 0.426-0.203 0.008-0.36 0.064-0.492 0.142-0.146-0.062-0.287-0.311-0.69-1.037-0.455 0.073-0.88 0.222-0.476 0.764 0.48 0.64 0.389 1.103-0.268 1.578 0.48-0.026 0.96-0.051 1.44-0.077 0.06 0.04 0.118 0.078 0.19 0.104 0.085 0.051 0.17 0.103 0.256 0.154-0.004-0.032-0.008-0.063-0.012-0.095 0.023 0.003 0.04 0.013 0.063 0.015 0.083 0.007 0.165 0.014 0.234 0.02-0.095 0.721-0.187 1.417-0.282 2.114-0.007 0.052-0.035 0.119-0.076 0.147-0.775 0.543-1.13 1.409-1.636 2.16z"/>	<path d="m25.425 18.493c-0.417-0.093-0.765 0.109-0.895 0.546-0.149 0.503-0.312 0.948-0.871 1.188-0.108 0.047-0.194 0.12-0.263 0.209-0.018-0.236-0.115-0.491-0.094-0.709 0.004-0.047-0.318-0.124-0.462-0.178 0.046 0.58 0.082 1.025 0.12 1.499 0.134-0.048 0.219-0.11 0.286-0.176-0.018 0.204 0.015 0.419 0.124 0.601 0.231 0.385 0.681 0.525 1.041 0.272 0.854-0.597 1.354-1.436 1.565-2.367 0.044-0.482-0.179-0.801-0.551-0.885z"/>	<path d="m13.72 28.936c-0.343-0.161-0.715-0.045-0.937 0.296-0.092 0.142-0.167 0.244-0.236 0.318 0.041-0.174 0.083-0.355 0.131-0.558-0.438 0.188-0.63 0.396-0.699 0.613-0.072-0.028-0.136-0.052-0.231-0.097-0.354-0.169-0.751-0.07-0.958 0.237-0.212 0.313-0.184 0.739 0.138 0.97 0.307 0.219 0.671 0.359 1.011 0.533 0.951 0.011 1.871-0.535 2.156-1.328 0.151-0.417 0.003-0.805-0.375-0.984z"/>	<path d="m19.779 24.052c-0.279-0.014-0.549 0.137-0.671 0.469-0.147 0.406-0.458 0.616-0.824 0.771-0.172 0.074-0.364 0.105-0.527 0.192-0.324 0.174-0.487 0.446-0.394 0.823 0.091 0.37 0.339 0.566 0.716 0.572 0.926 0.014 2.196-0.98 2.423-1.889 0.116-0.458-0.183-0.889-0.723-0.938z"/>	<path d="m29.429 9.933c0.026 0.271-0.013 0.547-0.012 0.821 0.001 0.425 0.272 0.733 0.668 0.77 0.376 0.036 0.69-0.197 0.786-0.592 0.031-0.125 0.042-0.256 0.063-0.384 0.014-0.002 0.027-0.005 0.042-0.007-0.06-0.485-0.052-0.992-0.202-1.447-0.105-0.323-0.377-0.641-0.658-0.847-0.331-0.242-0.815-0.084-1.037 0.231-0.228 0.326-0.165 0.663 0.147 1.011 0.106 0.117 0.188 0.289 0.203 0.444z"/>	<path d="m29.198 14.375c-0.371 0.087-0.611 0.437-0.529 0.863 0.071 0.376-0.035 0.556-0.416 0.645-0.412 0.096-0.624 0.476-0.539 0.854 0.09 0.406 0.439 0.641 0.872 0.585 0.849-0.111 1.548-0.862 1.619-1.855-0.02-0.103-0.039-0.334-0.107-0.55-0.139-0.437-0.494-0.639-0.9-0.542z"/>	<path d="m23.373 8.601c0.079-0.033 0.263-0.078 0.409-0.177 0.427-0.285 0.833-0.598 1.256-0.887 0.313-0.212 0.442-0.565 0.31-0.903-0.132-0.334-0.495-0.555-0.837-0.454-0.756 0.223-1.386 0.655-1.828 1.31-0.315 0.464 0.021 1.065 0.69 1.111z"/>	<path d="m23.79 23.2c-0.313-0.13-0.678-0.088-0.811 0.202-0.229 0.496-0.619 0.795-1.01 1.128-0.255 0.218-0.27 0.539-0.105 0.834 0.163 0.291 0.422 0.437 0.761 0.382 0.26-0.042 0.521-0.179 0.76-0.366 0.188 0.121 0.375 0.24 0.562 0.36-0.548-0.509 0.3-0.654 0.282-0.843-0.119-0.018-0.225-0.032-0.339-0.049 0.198-0.284 0.335-0.604 0.364-0.913 0.005-0.327-0.134-0.599-0.464-0.735z"/>	<path d="m17.613 28.67c-0.366-0.22-0.735-0.1-1.047 0.287-0.093 0.116-0.295 0.14-0.438 0.222-0.249 0.143-0.581 0.244-0.705 0.461-0.102 0.178-0.028 0.555 0.108 0.742 0.15 0.207 0.46 0.299 0.608 0.387 0.867-0.01 1.338-0.421 1.687-1.01 0.257-0.432 0.164-0.863-0.213-1.089z"/>	<path d="m10.646 32.245c-0.202-0.107-0.529-0.091-0.76-0.011-0.386 0.134-0.739 0.363-1.107 0.55-0.319 0.162-0.476 0.424-0.429 0.773s0.261 0.57 0.619 0.625c0.537 0.082 1.722-0.534 1.957-1.015 0.037-0.076 0.058-0.161 0.124-0.353-0.108-0.16-0.204-0.46-0.404-0.569z"/></g></svg><svg xmlns:xlink="http://www.w3.org/1999/xlink" id="salad" xml:space="preserve" height="39" viewBox="0 0 38 38.638" width="38" version="1.1" y="141" x="0px" enable-background="new 0 0 38 38.638"><g fill="#8BC03F" clip-rule="evenodd" fill-rule="evenodd">		<path d="m11.954 35.416c-0.088-0.107-0.19-0.231-0.292-0.355 0.013-0.027 0.025-0.055 0.039-0.084 0.092 0.048 0.195 0.081 0.273 0.146 0.113 0.093 0.252 0.192 0.296 0.317 0.035 0.102-0.055 0.246-0.092 0.379-0.422-0.187-0.742-0.097-0.947 0.236-0.037 0.06-0.013 0.16-0.009 0.24 0.01 0.253 0.021 0.506 0.036 0.759 0.007 0.117 0.024 0.233 0.04 0.386h-0.976c-0.006-0.031-0.012-0.061-0.018-0.092 0.124-0.025 0.248-0.061 0.373-0.071 0.168-0.015 0.288-0.052 0.252-0.263-0.006-0.039 0.051-0.089 0.08-0.134 0.029-0.046 0.093-0.108 0.081-0.134-0.029-0.06-0.088-0.115-0.147-0.148-0.111-0.061-0.231-0.105-0.349-0.156 0.016-0.031 0.031-0.063 0.046-0.094 0.097 0.037 0.193 0.074 0.392 0.15-0.38-0.403 0.054-0.563 0.12-0.822 0.119-0.474 0.545 0.056 0.802-0.26z"/>		<path d="m18.06 35.646c-0.368 0.283-0.582 0.573-0.418 1.026 0.068 0.188-0.129 0.338-0.336 0.275-0.111-0.034-0.22-0.073-0.381-0.128 0.05 0.156 0.079 0.246 0.128 0.403-0.087-0.053-0.143-0.067-0.147-0.093-0.056-0.281-0.15-0.523-0.489-0.557 0.012-0.104-0.003-0.224 0.043-0.309 0.032-0.059 0.15-0.068 0.25-0.107 0.037 0.041 0.079 0.09 0.121 0.137 0.243 0.274 0.477 0.244 0.625-0.086 0.064-0.143 0.126-0.289 0.167-0.439 0.071-0.268 0.21-0.278 0.437-0.122z"/>		<path d="m18.232 29.722c0.017 0.598 0.017 0.598 0.186 0.635-0.066 0.173-0.16 0.419-0.253 0.665-0.042-0.067-0.083-0.134-0.124-0.201-0.208-0.094-0.417-0.188-0.625-0.282 0.376-0.056 0.514-0.229 0.453-0.6-0.053-0.314 0.157-0.285 0.363-0.217z"/>		<path d="m14.507 33.458c-0.249-0.164-0.387-0.257-0.526-0.349-0.002-0.033-0.005-0.065-0.007-0.099 0.163-0.004 0.334-0.033 0.485 0.007 0.041 0.012 0.028 0.233 0.048 0.441z"/>		<path d="m17.343 32.319c0.3-0.087 0.599-0.173 0.899-0.26 0.015 0.044 0.029 0.089 0.044 0.133-0.296 0.098-0.592 0.194-0.888 0.292-0.018-0.055-0.036-0.109-0.055-0.165z"/>		<path d="m14.909 32.964c0.245 0.015 0.49 0.03 0.735 0.046-0.005 0.046-0.01 0.091-0.015 0.136-0.249 0.018-0.503 0.084-0.734-0.054 0.005-0.043 0.01-0.086 0.014-0.128z"/>		<path d="m13.139 31.951c0.086-0.207 0.167-0.4 0.273-0.652 0.049 0.054 0.167 0.156 0.155 0.174-0.114 0.177-0.054 0.527-0.428 0.478z"/>		<path d="m17.313 37.575c0.19 0.284 0.38 0.567 0.57 0.851-0.033 0.022-0.065 0.044-0.098 0.066-0.189-0.279-0.378-0.561-0.568-0.84 0.032-0.026 0.064-0.051 0.096-0.077z"/>	<path d="m31.869 31.158c0.033 0.024 0.068 0.051 0.102 0.076 0.127-0.145 0.245-0.298 0.346-0.467-0.039 0.021-0.078 0.05-0.116 0.061-0.111 0.109-0.222 0.22-0.332 0.33z"/>	<path d="m8.549 13.722c0.394 0.195 0.844-0.044 1.04-0.46 0.163-0.346 0.373-0.668 0.598-0.981 0.022-0.125 0.045-0.25 0.08-0.369 0.128-0.436 0.482-0.617 0.877-0.399 0.424 0.235 0.818 0.548 1.166 0.888 0.431 0.417 0.794 0.903 1.2 1.347 0.342 0.375 0.748 0.405 1.054 0.105 0.288-0.284 0.283-0.681-0.055-1.031-0.683-0.705-1.274-1.465-1.341-2.484-0.028-0.43 0.004-0.891 0.134-1.299 0.296-0.93 1.189-1.231 1.982-0.655 0.425 0.309 0.761 0.747 1.112 1.151 0.258-0.27 0.339-0.663 0.245-1.226-0.143-0.855 0.425-0.782 0.987-0.598 0.082-0.559 0.365-0.93 0.962-1.169 0.345-0.139 0.706-0.247 1.071-0.321 0.585-0.12 1.166-0.266 1.742-0.44-0.416-0.344-0.828-0.685-1.267-1.047-0.04 0.154-0.082 0.303-0.176 0.657-0.226-0.417-0.362-0.68-0.508-0.938-0.167-0.296-0.312-0.616-0.519-0.878-1.25 0.264-2.402 0.748-3.252 1.802-0.061 0.076-0.238 0.105-0.348 0.085-0.095-0.016-0.185-0.015-0.278-0.026 0.039 0.031 0.085 0.06 0.122 0.093 0.03 0.027-0.12 0.379-0.2 0.384-0.256 0.017-0.52-0.057-0.821-0.103 0.031-0.147 0.058-0.273 0.085-0.402-1.649 0.086-2.958 1.058-3.534 2.757-0.151 0.442-0.323 0.65-0.826 0.757-1.43 0.308-2.107 1.377-2.374 2.724-0.061 0.308-0.087 0.616-0.108 0.923 0.241-0.491 0.585-0.902 0.898-0.97-0.316 0.701-0.61 1.352-0.902 1.998 0.006 0.125 0.005 0.25 0.017 0.375 0.192-0.295 0.798-0.417 1.137-0.25z"/>	<path d="m22.9 2.993c-0.074-0.032-0.189-0.082-0.325-0.141-0.155 0.269-0.219 0.728-0.699 0.435 0.081-0.282 0.155-0.536 0.228-0.791-0.24 0.135-0.484 0.264-0.737 0.373-0.067 0.086-0.126 0.175-0.151 0.273-0.07 0.258 0.174 0.601 0.294 0.95-0.468 0.371-0.459-0.427-0.914-0.428 0.099 0.458 0.088 0.971 0.318 1.329 0.183 0.284 0.489 0.487 0.788 0.696 0.145-0.048 0.29-0.082 0.434-0.137v-1.983c0.115-0.002 0.229-0.005 0.345-0.008 0 0.237-0.053 0.489 0.013 0.706 0.094 0.307 0.211 0.658 0.434 0.865 0.014 0.014 0.026 0.037 0.04 0.053 0.03-0.016 0.062-0.026 0.092-0.042-0.009 0.044-0.019 0.083-0.028 0.125 0.375 0.54 0.567 1.877 0.214 2.276-0.073 0.081-0.214 0.146-0.32 0.142-0.085-0.005-0.207-0.109-0.241-0.198-0.014-0.037-0.026-0.073-0.041-0.111-0.041 0.457-0.043 0.914-0.012 1.371 0.059 0.213 0.202 0.369 0.631 0.233-0.192 0.101-0.385 0.204-0.578 0.306 0.02 0.142 0.033 0.284 0.058 0.425 0.077 0.44 0.377 0.668 0.785 0.609 0.391-0.056 0.649-0.405 0.558-0.824-0.314-1.449 0.213-2.571 1.33-3.456 0.882-0.699 1.791-1.367 2.948-1.538 0.958-0.142 1.534 0.333 1.533 1.305-0.001 0.461-0.116 0.923-0.184 1.383-0.021 0.146-0.066 0.288-0.085 0.433-0.058 0.408 0.159 0.732 0.533 0.812 0.347 0.073 0.67-0.139 0.79-0.515 0.028-0.091 0.054-0.183 0.08-0.275-0.397-0.022-0.795-0.056-1.191-0.131 0.411 0 0.821 0.008 1.232 0.011 0.023-0.072 0.045-0.145 0.076-0.212 0.476-1.039 1.554-1.282 2.351-0.467 0.146 0.15 0.268 0.329 0.395 0.501 0.231-0.028 0.469-0.057 0.687-0.081-0.215-1.125-0.427-2.236-0.639-3.352-0.526-0.198-1.106-0.302-1.749-0.288-0.1 0.001-0.24-0.095-0.3-0.186-0.882-1.339-2.163-1.833-3.696-1.665-0.73 0.08-1.441 0.33-2.183 0.507-0.022-0.078-0.053-0.205-0.094-0.33-0.313-0.962-1.472-1.329-2.196-0.632-0.017 0.015-0.035 0.026-0.051 0.042-0.09 0.246-0.171 0.466-0.24 0.657-0.968-0.06-0.196 0.692-0.533 0.973z"/>	<path d="m37.321 13.829c-0.116-0.188-0.125-0.307-0.003-0.494 0.471-0.725 0.693-1.529 0.681-2.393-0.017-1.192-0.313-2.293-0.782-3.332-0.571 0.045-1.15 0.091-1.748 0.138 0.115 0.206 0.227 0.407 0.49 0.88-0.662-0.208-1.075-0.347-1.488-0.468 0.08 0.122 0.156 0.241 0.242 0.362-0.448 0.19-0.806 0.301-1.123 0.483-0.866 0.496-1.729 1.003-2.568 1.545-0.448 0.29-0.51 0.724-0.232 1.061 0.256 0.312 0.666 0.32 1.066 0.011 0.971-0.748 2.029-1.332 3.185-1.733 0.526 0.926 0.204 2.042-0.699 2.483-0.517 0.253-0.786 0.675-0.78 1.251 0.008 0.594 0.307 1.001 0.844 1.252 0.202 0.095 0.389 0.224 0.584 0.337-0.02 0.052-0.039 0.102-0.058 0.153-0.905-0.122-1.812-0.244-2.719-0.368-0.131-0.018-0.262-0.051-0.394-0.068-0.417-0.055-0.744 0.163-0.809 0.531-0.066 0.388 0.131 0.718 0.551 0.794 0.801 0.146 1.609 0.25 2.415 0.372 0.061 0.009 0.122 0.017 0.198 0.027-0.771 0.827-0.768 1.094-0.375 2.16 0.277 0.755 0.398 1.568 0.584 2.357 0.049 0.207-0.051 0.307-0.254 0.367-0.985 0.295-1.932 0.217-2.831-0.28-0.468-0.259-0.915-0.552-1.371-0.832-0.435-0.266-0.823-0.216-1.055 0.141-0.228 0.352-0.113 0.739 0.315 1.014 0.348 0.225 0.701 0.44 1.057 0.652 1.57 0.934 1.678 3.008 0.209 4.085-0.107 0.079-0.221 0.147-0.313 0.21-0.708-0.537-1.396-1.061-2.087-1.58-0.128-0.097-0.264-0.186-0.407-0.256-0.323-0.156-0.674-0.055-0.869 0.229 0.613 0.452 1.016 1.037 1.289 1.712 0.653 0.504 1.233 1.086 1.754 1.735-0.055-0.459-0.027-0.872 0.139-1.121 0.488 1.357 0.938 2.604 1.385 3.848-0.58-0.253-1.074-1.064-1.343-1.9-0.021 0.045-0.039 0.091-0.067 0.133-0.105 0.16-0.381 0.273-0.587 0.285-0.285 0.018-0.581-0.068-0.866-0.129-0.496-0.105-0.99-0.221-1.482-0.342-0.686-0.17-1.295-0.482-1.834-0.945-0.374-0.322-0.763-0.633-1.168-0.912-0.354-0.244-0.731-0.162-0.955 0.152-0.232 0.326-0.154 0.707 0.199 0.979 0.256 0.195 0.511 0.391 0.767 0.582 0.412 0.307 0.595 0.695 0.586 1.145h2.347c-1.023 0.586-1.823 0.691-2.388 0.313-0.007 0.035-0.005 0.068-0.015 0.105-0.166 0.648-0.599 1.052-1.225 1.217 0.303 0.139 0.604 0.289 0.858 0.495 0.104 0.085 0.017 0.409 0.017 0.645-0.45-0.22-0.774-0.36-1.08-0.533-0.135-0.077-0.33-0.231-0.32-0.334 0.006-0.062 0.056-0.142 0.111-0.214-1.379 0.094-2.773-1.07-2.874-2.511-0.024-0.358 0.004-0.721 0.019-1.081 0.015-0.433-0.203-0.733-0.579-0.777-0.388-0.047-0.712 0.17-0.765 0.593-0.061 0.5-0.056 1.01-0.081 1.571-1.03-0.095-1.844 0.375-2.471 1.098-0.017 0.018-0.035 0.033-0.051 0.052 0.194 0.29 0.388 0.581 0.583 0.87-0.089 0.061-0.179 0.121-0.269 0.18-0.182-0.268-0.365-0.538-0.547-0.807-0.838 0.813-1.847 1.177-3.029 1.229-0.907 0.04-1.813 0.134-2.719 0.2-0.046 0.004-0.094-0.01-0.227-0.023 0.502-0.516 0.933-1.004 1.412-1.443 0.996-0.913 1.959-1.866 3.047-2.67-0.209-0.121-0.344-0.164-0.357-0.227-0.079-0.397-0.188-0.766-0.399-1.043-0.622 0.617-1.272 1.213-1.953 1.783-2.34 1.963-4.331 4.287-6.387 6.536-0.174 0.19-0.299 0.259-0.528 0.104-0.253-0.169-0.529-0.305-0.829-0.475 0.961-0.877 1.891-1.732 2.829-2.58 1.498-1.354 2.973-2.734 4.508-4.046 0.639-0.547 1.237-1.124 1.803-1.723-0.116-0.041-0.242-0.075-0.389-0.089 0.031-0.288-0.01-0.615 0.119-0.85 0.088-0.159 0.414-0.189 0.688-0.297 0.1 0.114 0.215 0.247 0.332 0.379 0.003 0.004 0.006 0.006 0.009 0.01 1.526-1.784 2.771-3.772 3.753-5.962 0.732-1.631 1.487-3.258 2.329-4.834 0.576-1.079 1.311-2.075 1.997-3.091 0.296-0.439 0.315-0.838-0.021-1.098-0.317-0.246-0.729-0.155-1.043 0.229-1.502 1.84-2.532 3.953-3.525 6.087-0.394 0.848-0.792 1.693-1.189 2.54-0.056 0.116-0.122 0.227-0.216 0.4-0.233-1.224-0.64-2.301-1.307-3.272-0.083-0.121-0.166-0.244-0.259-0.357-0.274-0.337-0.682-0.41-0.989-0.186-0.32 0.235-0.365 0.625-0.113 0.995 0.112 0.167 0.238 0.324 0.343 0.494 0.703 1.141 1.12 2.366 1.02 3.723-0.077 1.036-0.51 1.948-1.186 2.708-0.879 0.987-1.795 1.947-2.756 2.854-1.916 1.805-3.874 3.566-5.817 5.348-0.175-0.107-0.328-0.211-0.49-0.299-0.313-0.173-0.421-0.436-0.353-0.774 0.073-0.358 0.326-0.378 0.639-0.361 0.952 0.05 1.629-0.755 1.431-1.672-0.086-0.399 0.011-0.51 0.428-0.481 0.146 0.008 0.295 0.039 0.438 0.022 0.827-0.097 1.362-0.86 1.183-1.677-0.02-0.09-0.036-0.181-0.057-0.287 0.333-0.033 0.65-0.07 0.969-0.092 0.73-0.053 1.219-0.401 1.391-1.005 0.176-0.62-0.042-1.147-0.65-1.578-1.014-0.718-1.142-2.06-0.275-2.881 0.691-0.657 1.896-0.58 2.499 0.159 0.288 0.354 0.657 0.422 0.981 0.184 0.301-0.223 0.363-0.605 0.141-0.966-0.112-0.182-0.241-0.354-0.378-0.518-1.713-2.034-2.433-4.422-2.558-7.017-0.115 0.204-0.286 0.368-0.606 0.664-0.497 0.461-1.491 0.78-1.838 0.588-0.079 0.001-0.156 0.002-0.234 0.003 0.076 0.583 0.183 1.165 0.322 1.742 0.025 0.104 0.061 0.206 0.088 0.31 0.196-0.12 0.391-0.238 0.608-0.371 0.152 0.15 0.238 0.352 0.272 0.575 0.587 0.038 1.174 0.075 1.761 0.113-0.014 0.125-0.027 0.249-0.041 0.375-0.582 0.039-1.175 0.173-1.73-0.02-0.031 0.151-0.083 0.305-0.165 0.458-0.143-0.051-0.283-0.1-0.425-0.151 0.122 0.385 0.248 0.77 0.366 1.158-2.057 1.356-2.833 3.206-2.094 5.648-0.83 0.065-1.169 0.639-1.406 1.313-0.053 0.15-0.116 0.308-0.12 0.464-0.006 0.337-0.198 0.481-0.485 0.587-0.602 0.221-0.958 0.635-1.038 1.298-0.023 0.192-0.169 0.451-0.332 0.532-0.923 0.452-1.437 1.221-1.727 2.156-0.283 0.914-0.101 1.794 0.345 2.651-0.33 0.251-0.646 0.494-0.963 0.735-1.004 0.764-0.933 1.871 0.166 2.49 1.07 0.604 2.146 1.199 3.219 1.795 1.009 0.561 1.469 0.537 2.356-0.215 0.394-0.334 0.747-0.728 1.07-1.133 0.816-1.02 1.819-1.67 3.155-1.751 0.946-0.058 1.893-0.132 2.837-0.219 1.621-0.147 3.077-0.67 4.194-1.919 0.179-0.199 0.334-0.42 0.5-0.631 0.06 0.001 0.12 0.002 0.179 0.003 0.081 0.124 0.135 0.286 0.247 0.367 0.625 0.452 1.219 0.978 1.905 1.308 2.676 1.283 5.321 0.148 6.37-1.912 0.044-0.086 0.255-0.146 0.372-0.127 0.474 0.08 0.936 0.22 1.41 0.293 1.263 0.199 2.363-0.166 3.11-0.893-0.111-0.205-0.217-0.409-0.309-0.617-0.222-0.505 0.346-1.371 0.921-1.557 0.156-0.05 0.287-0.133 0.393-0.24 0.006-0.238-0.002-0.482-0.039-0.735-0.021-0.149 0.054-0.358 0.156-0.474 0.041-0.045 0.075-0.094 0.114-0.139-0.251-0.739-0.386-1.516-0.462-2.3 0.588 0.853 0.84 1.229 0.941 1.645 0.24-0.388 0.428-0.802 0.526-1.259 0.097-0.452 0.11-0.922 0.163-1.413 0.078-0.019 0.185-0.032 0.281-0.072 0.649-0.269 1.314-0.51 1.941-0.823 0.459-0.231 0.659-0.672 0.688-1.193 0.063-1.185-0.028-2.352-0.405-3.482-0.077-0.23-0.008-0.357 0.146-0.517 1.2-1.249 1.379-2.927 0.464-4.413z"/>	<path d="m36.016 5.54c-0.343-0.458-0.731-0.842-1.168-1.144 0.011 0.199 0.037 0.389 0.125 0.546 0.162 0.29 0.614 0.42 1.043 0.598z"/>	<path d="m34.853 6.136c0.577 0.386 1.094 0.942 1.708 1.085 0.159 0.038 0.324 0.051 0.493 0.05-0.231-0.47-0.493-0.93-0.783-1.377-0.017-0.026-0.036-0.049-0.054-0.075-0.206 0.557-0.92-0.111-1.364 0.317z"/>	<path d="m26.354 14.139c1.049-0.661 1.922-1.513 2.691-2.466 0.037-0.542 0.277-0.893 0.731-1.041 0.099-0.295 0.017-0.583-0.239-0.767-0.318-0.23-0.721-0.174-0.979 0.202-0.992 1.453-2.313 2.54-3.766 3.497-2.041 1.345-3.647 3.124-5.002 5.14-0.507 0.753-1.026 1.502-1.487 2.285-0.566 0.961-1.197 1.867-1.856 2.748 0.192-0.025 0.428 0.07 0.718 0.271-1.012 0.777-1.6 1.574-1.15 2.82 0.047 0.131 0.048 0.254 0.013 0.363 0.261-0.214 0.506-0.455 0.749-0.688 0.909-0.869 1.915-1.523 3.023-1.953-0.061-0.205-0.082-0.471-0.043-0.822 0.245 0.227 0.459 0.424 0.662 0.61 0.578-0.174 1.18-0.296 1.814-0.35 0.17-0.015 0.355-0.034 0.503-0.109 0.315-0.159 0.411-0.444 0.331-0.78-0.079-0.327-0.391-0.557-0.773-0.484-0.967 0.182-1.927 0.407-2.888 0.62-0.113 0.024-0.218 0.081-0.384 0.044 0.428-0.346 0.837-0.717 1.287-1.031 1.196-0.838 2.566-1.299 3.938-1.752 1.482-0.49 2.97-0.968 4.453-1.454 0.51-0.167 0.719-0.52 0.564-0.929-0.148-0.39-0.49-0.541-0.96-0.377-2.058 0.716-4.176 1.269-6.201 2.076 0.012 0.284-0.019 0.634-0.103 1.071-0.119-0.293-0.236-0.587-0.361-0.877-0.467 0.197-0.93 0.404-1.383 0.637-0.008 0.004-0.023-0.005-0.074-0.018 0.052-0.091 0.096-0.177 0.146-0.259 0.277-0.451 0.572-0.884 0.876-1.308-0.017-0.038-0.034-0.074-0.052-0.111 0.051-0.009 0.093-0.007 0.14-0.01 1.38-1.895 3.034-3.522 5.062-4.798z"/>	<path d="m14.042 27.236c0.131 0.412 0.21 0.66 0.336 1.057 0.331-0.242 0.677-0.464 1.036-0.673-0.104 0.007-0.213 0.002-0.325-0.032-0.304-0.092-0.602-0.202-1.047-0.352z"/>	<path d="m18.505 10.932c0.299-0.299 0.277-0.694-0.095-1.056-0.108-0.106-0.202-0.218-0.291-0.331-0.146 0.385-0.335 0.88-0.534 1.4 0.309 0.242 0.668 0.24 0.92-0.013z"/>	<path d="m17.674 8.664c0.037 0.616 0.112 0.707 0.363 0.771-0.167-0.236-0.289-0.492-0.363-0.771z"/>	<path d="m15.951 24.375c-0.507 0.639-1.04 1.258-1.599 1.854 0.451 0.19 0.859-0.029 1.149-0.674 0.173-0.386 0.338-0.776 0.45-1.18z"/>	<path d="m21.84 6.145c0.055-0.078 0.109-0.155 0.164-0.233-0.096-0.077-0.199-0.151-0.303-0.223-0.1 0.033-0.199 0.064-0.299 0.094 0.143 0.118 0.294 0.243 0.438 0.362z"/>	<path d="m18.692 3.107c-0.41-0.357-0.786-0.753-1.177-1.132 0.397 0.564 0.909 1.013 1.361 1.516 0.022 0.025 0.036 0.059 0.057 0.085 0.09-0.019 0.18-0.039 0.27-0.055-0.171-0.134-0.344-0.269-0.511-0.414z"/>	<path d="m6.866 9.071c-0.165 0.156-0.228 0.419-0.337 0.635 0.203-0.004 0.405-0.008 0.624-0.013 0.024 0.477 0.05 1.015 0.076 1.553 0.556-0.856 0.875-1.729 0.496-2.755-0.297 0.194-0.614 0.349-0.859 0.58z"/>	<path d="m8.464 16.985c0.094 0.056 0.19 0.097 0.288 0.13 0.034-0.164 0.032-0.319 0.009-0.468-0.086-0.005-0.173-0.011-0.26-0.017-0.012 0.119-0.024 0.236-0.037 0.355z"/>	<path d="m6.967 16.999c0.372 0.132 0.78 0.276 1.195 0.423-0.103-0.324-0.194-0.651-0.281-0.979-0.34 0.207-0.657 0.399-0.914 0.556z"/>	<path d="m5.897 18.334c0.574-0.12 1.148-0.24 1.722-0.358-0.006-0.066-0.014-0.131-0.02-0.197-0.365-0.102-0.725-0.262-1.095-0.294-0.578-0.048-0.82 0.313-0.607 0.849z"/>	<path d="m15.064 3.727c0.431 0.631 0.927 0.024 1.44 0.14-0.506-0.614-0.984-0.642-1.44-0.14z"/>	<path d="m5.476 11.585c-0.476-0.46-0.866-0.839-1.324-1.283-0.071 0.615 0.383 1.044 1.324 1.283z"/>	<path d="m2.565 10.558c-0.053 0.045-0.031 0.211-0.002 0.313 0.066 0.228 0.158 0.448 0.273 0.767 0.111-0.114 0.307-0.23 0.295-0.321-0.034-0.275-0.138-0.544-0.245-0.803-0.012-0.03-0.247-0.018-0.321 0.044z"/>	<path d="m17.577 0c-0.202 0.042-0.392 0.082-0.775 0.161 0.389 0.314 0.635 0.511 0.826 0.666-0.018-0.286-0.034-0.543-0.051-0.827z"/></g></svg><svg xmlns:xlink="http://www.w3.org/1999/xlink" id="sauce" xml:space="preserve" height="43" viewBox="0 0 40.189 43.416" width="40" version="1.1" y="180" x="0px" enable-background="new 0 0 40.189 43.416"><g fill="#E35028">	<path d="m15.407 6.22c0.04 0.091 0.187 0.22 0.244 0.201 0.109-0.033 0.259-0.151 0.271-0.249 0.099-0.81-0.205-1.502-0.67-2.23-0.123 0.478-0.505 0.797-0.236 1.281 0.17 0.308 0.248 0.67 0.391 0.997z"/>	<path d="m23.878 9.649c0.145-0.379 0.288-0.758 0.39-1.024-0.261-0.056-0.261-0.056-0.287-0.978-0.316-0.105-0.64-0.151-0.56 0.332 0.096 0.571-0.117 0.839-0.697 0.927 0.32 0.145 0.642 0.289 0.963 0.434 0.063 0.103 0.127 0.207 0.191 0.309z"/>	<path d="m27.277 16.735c0.411 0.082 0.82 0.165 1.319 0.265-0.114-0.251-0.164-0.358-0.196-0.428 0.191-0.11 0.34-0.196 0.565-0.324-1.171-0.367-1.43-0.281-1.688 0.487z"/>	<path d="m26.941 7.63c0.061 0.003 0.139-0.033 0.18-0.079 0.217-0.244 0.07-1.121-0.178-1.352-0.125-0.116-0.189-0.313-0.242-0.484-0.037-0.122-0.008-0.264-0.008-0.396-0.065 0.001-0.129 0.003-0.193 0.005v1.349c0.084 0.231 0.189 0.542 0.308 0.846 0.018 0.049 0.086 0.108 0.133 0.111z"/>	<path d="m27.13 8.355c-0.517 0.164-0.307-0.422-0.432-0.479-0.27 0.35-0.506 0.659-0.743 0.968 0.015 0.036 0.03 0.073 0.046 0.107 0.376-0.197 0.752-0.396 1.129-0.596z"/>	<path d="m24.064 11.452c-0.021-0.068-0.045-0.137-0.066-0.205-0.462 0.135-0.924 0.268-1.385 0.401 0.028 0.084 0.057 0.17 0.085 0.254 0.456-0.15 0.911-0.299 1.366-0.45z"/>	<path d="m19.971 12.924c0.007-0.07 0.015-0.141 0.023-0.21-0.377-0.024-0.755-0.048-1.132-0.072-0.007 0.065-0.015 0.132-0.021 0.198 0.355 0.21 0.747 0.109 1.13 0.084z"/>	<path d="m9.639 23.044c0.004 0.052 0.007 0.102 0.011 0.153 0.214 0.142 0.428 0.283 0.811 0.536-0.031-0.32-0.009-0.66-0.074-0.678-0.234-0.062-0.497-0.016-0.748-0.011z"/>	<path d="m11.06 23.17c0.355 0.21 0.748 0.109 1.13 0.084 0.007-0.07 0.015-0.141 0.023-0.21-0.377-0.024-0.755-0.048-1.132-0.072-0.007 0.065-0.015 0.132-0.021 0.198z"/>	<path d="m0.862 29.643c-0.329 0.14-0.586 0.449-0.862 0.674 0.323 0.133 0.646 0.355 0.981 0.376 0.277 0.018 0.627-0.144 0.829-0.344 0.11-0.109 0.047-0.631-0.058-0.673-0.264-0.107-0.636-0.143-0.89-0.033z"/>	<path d="m3.274 34.769c0.627 0.675 1.254 1.35 1.881 2.024 0.067-0.066 0.134-0.133 0.201-0.199-0.604-0.694-1.207-1.389-1.811-2.083-0.09 0.085-0.181 0.172-0.271 0.258z"/>	<path d="m13.015 43.416c0.917-0.083 1.497-0.137 1.949-0.178-0.391-0.357-0.742-0.677-1.129-1.029-0.215 0.315-0.415 0.609-0.82 1.207z"/>	<path d="m15.245 22.124c0.346-0.113 0.693-0.228 1.039-0.342-0.022-0.068-0.045-0.137-0.067-0.205-0.338 0.099-0.677 0.196-1.015 0.294l-0.695-3.999c-0.069-0.4-0.293-0.734-0.598-0.956 0.22-0.03 0.465 0 0.746 0.124 0.057-0.205 0.196-0.429 0.142-0.584-0.068-0.193-0.282-0.347-0.457-0.49-0.121-0.099-0.279-0.149-0.421-0.223l-0.06 0.129c0.157 0.19 0.313 0.381 0.45 0.548-0.352 0.435-0.91-0.16-1.158 0.22-0.125-0.011-0.25-0.011-0.379 0.012-0.816 0.143-1.363 0.918-1.221 1.734l2.526 14.533c0.142 0.816 0.918 1.362 1.735 1.221 0.816-0.143 1.363-0.919 1.221-1.734l-1.788-10.282z"/>	<path d="m31.696 34.834c-0.143 0.109 0.253 1.356 0.429 1.363 0.635 0.028 1.281-0.254 2.143-0.475-0.225-0.877-0.358-1.401-0.492-1.925-0.708 0.327-1.477 0.573-2.08 1.037z"/>	<path d="m39.365 6.225c0.095-0.47 0.205-0.937 0.316-1.403 0.183-0.768 0.372-1.561 0.488-2.359 0.071-0.479-0.048-1.523-0.526-1.811l-0.085-0.043c-0.586-0.234-1.461 0.01-1.936 0.368-0.845 0.64-1.654 1.345-2.438 2.026-0.411 0.358-0.822 0.717-1.239 1.066-0.167 0.141-0.308 0.227-0.38 0.258-1.369-0.553-1.945 0.453-2.385 1.221l-0.186 0.332c-0.252 0.451-0.49 0.877-0.788 1.254-0.143 0.182-0.432 0.346-0.618 0.355-1.404 0.061-2.48 0.693-3.195 1.881l-3.558 5.909c-0.472 0.783-0.942 1.566-1.413 2.35-0.078 0.024-0.145 0.052-0.172 0.1-0.043 0.08-0.052 0.179-0.056 0.279-0.572 0.951-1.144 1.901-1.715 2.853l0.732 4.373c0.613-1.02 1.227-2.039 1.84-3.059l0.908-1.51c0.112 0.164 0.223 0.329 0.335 0.493 0.05-0.033 0.101-0.067 0.15-0.101-0.126-0.189-0.253-0.378-0.38-0.567l0.361-0.599 1.406-2.338c0.115-0.19 0.229-0.38 0.344-0.57 0.069 0.414 0.385 0.465 0.709 0.505 0.034-0.038 0.068-0.076 0.104-0.115-0.204-0.188-0.42-0.386-0.674-0.62 0.361-0.6 0.723-1.198 1.084-1.798 0.009 0.023 0.019 0.046 0.028 0.069 0.011-0.057 0.009-0.092 0.017-0.144 0.752-1.251 1.504-2.502 2.26-3.751 0.52-0.859 0.709-0.908 1.559-0.402 0.137 0.081 0.271 0.162 0.406 0.243 0.319-0.659 0.638-1.318 0.957-1.977 0.134 0.93 0.268 1.859 0.402 2.79 0.213 0.128 0.427 0.254 0.641 0.383 0.781 0.47 1.561 0.941 2.339 1.416 0.827 0.505 0.874 0.71 0.355 1.572-0.958 1.595-1.919 3.188-2.878 4.781-0.008 0.443-0.016 0.907-0.025 1.419-0.258-0.132-0.451-0.247-0.611-0.361-2.326 3.866-4.651 7.733-6.98 11.599-0.55 0.912-0.733 0.959-1.637 0.421-0.625-0.373-1.248-0.752-1.872-1.127-0.266-1.536-0.532-3.072-0.799-4.608 0.087 0.018 0.164 0.033 0.256 0.052-0.114-0.251-0.164-0.358-0.196-0.428 0.191-0.11 0.339-0.196 0.565-0.324-0.326-0.103-0.576-0.165-0.78-0.192-0.002-0.013-0.004-0.026-0.007-0.039l-0.526-3.025c-0.162-0.93-0.319-1.86-0.477-2.791-0.095-0.564-0.197-1.142-0.294-1.713 0.083-0.044 0.167-0.088 0.25-0.132-0.134 0.043-0.218 0.033-0.273-0.003-0.074-0.436-0.147-0.867-0.224-1.305 0.054 0.151 0.112 0.311 0.174 0.471 0.019 0.05 0.087 0.108 0.134 0.111 0.06 0.003 0.139-0.033 0.18-0.079 0.216-0.244 0.069-1.121-0.178-1.352-0.125-0.116-0.19-0.313-0.243-0.484-0.037-0.122-0.007-0.264-0.007-0.396-0.064 0.002-0.129 0.004-0.194 0.006v0.964c-0.198-1.107-0.407-2.217-0.63-3.316 0.05 0.033 0.097 0.064 0.153 0.102-0.031-0.32-0.009-0.66-0.074-0.678-0.067-0.018-0.14-0.015-0.211-0.018-0.204-0.711-0.646-1.623-1.282-2.042 0.033-0.115 0.062-0.232 0.119-0.322 0.019-0.028-0.163-0.186-0.238-0.269-0.065 0.156-0.122 0.291-0.178 0.426-1.028-0.455-1.14-1.187-1.294-2.249l-0.038-0.284c-0.042-0.35-0.087-0.709-0.223-1.053-0.131-0.331-0.49-1.101-0.995-1.1-0.65 0.002-0.853-0.354-1.154-0.984-0.069-0.146-0.139-0.291-0.216-0.428-0.235-0.417-0.457-0.842-0.679-1.268-0.364-0.699-0.742-1.424-1.176-2.104-0.26-0.408-1.034-1.119-1.584-1.023l-0.093 0.023c-0.595 0.207-1.098 0.963-1.222 1.546-0.219 1.036-0.37 2.099-0.515 3.127-0.076 0.54-0.152 1.08-0.238 1.618-0.035 0.215-0.084 0.371-0.119 0.444-1.396 0.477-1.173 1.617-1.003 2.484l0.076 0.373c0.104 0.506 0.203 0.983 0.226 1.463 0.011 0.23-0.1 0.545-0.235 0.674-1.022 0.966-1.42 2.148-1.183 3.515l0.003 0.018c0.886 1.166 1.79 2.354 2.748 3.615-0.191 0.257-0.497 0.669-0.803 1.081-0.4-0.366-0.771-0.771-1.205-1.091-0.052-0.038-0.087-0.086-0.136-0.126l0.573 3.299c0.249 1.432 0.5 2.864 0.749 4.297-0.029-0.023-0.058-0.05-0.085-0.072-0.121-0.099-0.279-0.149-0.421-0.223l-0.06 0.129c0.157 0.19 0.313 0.381 0.45 0.548-0.395 0.487-1.053-0.33-1.237 0.4-0.101 0.399-0.769 0.645-0.183 1.267-0.307-0.118-0.456-0.176-0.604-0.232-0.023 0.048-0.047 0.096-0.07 0.145 0.18 0.078 0.366 0.147 0.537 0.242 0.092 0.051 0.182 0.136 0.227 0.228 0.019 0.039-0.08 0.135-0.125 0.206-0.043 0.07-0.132 0.146-0.122 0.208 0.054 0.324-0.13 0.381-0.39 0.403-0.193 0.015-0.383 0.071-0.574 0.11 0.009 0.047 0.018 0.093 0.027 0.141h1.503c-0.025-0.233-0.051-0.413-0.062-0.595-0.023-0.39-0.041-0.778-0.056-1.168-0.005-0.125-0.042-0.279 0.014-0.37 0.307-0.497 0.781-0.635 1.402-0.382 0.5 2.873 0.997 5.746 1.501 8.619 0.393 2.233 2.115 3.433 4.387 3.057 0.858-0.143 1.715-0.289 2.571-0.438 0.995-0.173 1.989-0.35 2.982-0.525l0.124-0.021c1.011-0.18 1.79-0.576 2.345-1.14-0.047-0.25-0.095-0.502-0.143-0.751 0.123-0.058 0.248-0.116 0.371-0.174 0.066 0.13 0.131 0.261 0.195 0.392 0.4-0.638 0.592-1.422 0.531-2.343l0.262 1.564c0.465 0.264 0.92 0.429 1.363 0.528 0.042-0.133 0.078-0.253 0.134-0.403 0.073 0.165 0.144 0.319 0.208 0.466 1.438 0.188 2.718-0.494 3.649-2.036 1.175-1.945 2.347-3.892 3.518-5.84-0.247-0.19-0.5-0.371-0.742-0.567-0.2-0.163-0.094-0.707-0.13-1.075 0.643-0.031 1.293-0.123 1.928-0.112l0.708-1.176c0.486-0.81 0.978-1.616 1.468-2.423 1.299-2.135 2.643-4.344 3.889-6.563 0.4-0.715 0.845-2.088 0.422-2.936-0.523-1.052-0.119-1.683 0.471-2.604l0.158-0.24c0.195-0.291 0.398-0.593 0.521-0.941 0.117-0.336 0.35-1.152-0.033-1.482-0.492-0.424-0.412-0.826-0.227-1.5 0.046-0.156 0.088-0.311 0.12-0.465zm-17.112 15.102c-0.174-0.167-0.514-0.361-0.49-0.495 0.056-0.332 0.277-0.637 0.547-1.188 0.049 0.071 0.097 0.132 0.144 0.193-0.012 0.01-0.024 0.02-0.036 0.029 0.131 0.193 0.264 0.388 0.395 0.582-0.12 0.317-0.364 0.589-0.56 0.879zm-10.076-12.475l0.221 1.271-3.321 0.577-0.221-1.271 3.321-0.577zm-2.778-6.126l2.117 3.242-3.015 0.523 0.898-3.765zm8.407 32.489c-1.782 0.317-3.565 0.628-5.352 0.931-1.03 0.174-1.17 0.07-1.358-1.002-0.307-1.752-0.611-3.505-0.915-5.257-0.208 0.055-0.436 0.114-0.708 0.188 0.188-0.518 0.344-0.966 0.499-1.39-0.051-0.296-0.104-0.593-0.155-0.89l-0.456-2.625-0.468-2.689c-0.066-0.378-0.131-0.757-0.197-1.135 0.2-0.144 0.189-0.476 0.316-0.673 0.019-0.028-0.163-0.186-0.238-0.269-0.063 0.149-0.117 0.278-0.17 0.407-0.237-1.359-0.472-2.719-0.707-4.078 0.105-0.042 0.232-0.143 0.243-0.232 0.092-0.755-0.173-1.408-0.585-2.084 0.033-0.406 0.286-0.528 0.973-0.651 0.919-0.164 1.839-0.327 2.76-0.487 0.898-0.155 1.797-0.31 2.696-0.46 0.956-0.161 1.125-0.037 1.299 0.955 0.241 1.384 0.48 2.768 0.722 4.152-0.237-0.047-0.427 0.002-0.363 0.383 0.096 0.571-0.117 0.839-0.697 0.927 0.321 0.145 0.642 0.289 0.962 0.434 0.064 0.104 0.127 0.207 0.191 0.31 0.062-0.162 0.123-0.321 0.181-0.476 0.443 2.55 0.887 5.099 1.329 7.648-0.073-0.067-0.138-0.127-0.22-0.203-0.055 0.5 0.098 0.694 0.321 0.784 0.353 2.031 0.708 4.062 1.059 6.092 0.18 1.049 0.073 1.205-0.962 1.39zm17.768-24.706l-2.889-1.739 0.666-1.105 2.889 1.739-0.666 1.105zm2.053-3.719l-2.622-1.578 3.146-2.258-0.524 3.836z"/>	<path d="m22.427 30.894c0.709 0.428 1.631 0.198 2.058-0.512l7.606-12.637c0.428-0.711 0.199-1.631-0.512-2.059-0.709-0.428-1.631-0.198-2.058 0.512l-7.606 12.637c-0.427 0.711-0.199 1.631 0.512 2.059z"/></g></svg></svg>
